<?xml version="1.0" encoding="UTF-8" standalone="no"?>
<svg
   width="442.06781pt"
   height="221.49152pt"
   viewBox="0 0 442.06781 221.49152"
   version="1.1"
   id="svg80"
   sodipodi:docname="healthy.svg"
   inkscape:version="1.3.2 (091e20e, 2023-11-25)"
   xmlns:inkscape="http://www.inkscape.org/namespaces/inkscape"
   xmlns:sodipodi="http://sodipodi.sourceforge.net/DTD/sodipodi-0.dtd"
   xmlns:xlink="http://www.w3.org/1999/xlink"
   xmlns="http://www.w3.org/2000/svg"
   xmlns:svg="http://www.w3.org/2000/svg"
   xmlns:rdf="http://www.w3.org/1999/02/22-rdf-syntax-ns#"
   xmlns:cc="http://creativecommons.org/ns#"
   xmlns:dc="http://purl.org/dc/elements/1.1/">
  <sodipodi:namedview
     id="namedview80"
     pagecolor="#ffffff"
     bordercolor="#000000"
     borderopacity="0.25"
     inkscape:showpageshadow="2"
     inkscape:pageopacity="0.0"
     inkscape:pagecheckerboard="0"
     inkscape:deskcolor="#d1d1d1"
     inkscape:document-units="pt"
     inkscape:zoom="0.81944444"
     inkscape:cx="118.37288"
     inkscape:cy="172.0678"
     inkscape:window-width="1728"
     inkscape:window-height="1051"
     inkscape:window-x="0"
     inkscape:window-y="38"
     inkscape:window-maximized="1"
     inkscape:current-layer="svg80" />
  <metadata
     id="metadata1">
    <rdf:RDF>
      <cc:Work>
        <dc:type
           rdf:resource="http://purl.org/dc/dcmitype/StillImage" />
        <dc:date>2024-09-15T15:39:01.577142</dc:date>
        <dc:format>image/svg+xml</dc:format>
        <dc:creator>
          <cc:Agent>
            <dc:title>Matplotlib v3.9.1, https://matplotlib.org/</dc:title>
          </cc:Agent>
        </dc:creator>
      </cc:Work>
    </rdf:RDF>
  </metadata>
  <defs
     id="defs1">
    <style
       type="text/css"
       id="style1">*{stroke-linejoin: round; stroke-linecap: butt}</style>
  </defs>
  <g
     id="patch_1"
     transform="scale(1.0233051,1.0254237)">
    <path
       d="M 0,216 H 432 V 0 H 0 Z"
       style="fill:#ffffff"
       id="path1" />
  </g>
  <g
     id="patch_2">
    <path
       d="M 54,192.24 H 388.8 V 25.92 H 54 Z"
       style="fill:#ffffff"
       id="path2" />
  </g>
  <g
     id="matplotlib.axis_1">
    <g
       id="xtick_1">
      <g
         id="line2d_1">
        <defs
           id="defs2">
          <path
             id="medf70367be"
             d="M 0,0 V 3.5"
             style="stroke:#000000;stroke-width:0.8" />
        </defs>
        <g
           id="g2">
          <use
             xlink:href="#medf70367be"
             x="82.148666"
             y="192.24001"
             style="stroke:#000000;stroke-width:0.8"
             id="use2" />
        </g>
      </g>
      <g
         id="text_1">
        <!-- 0 -->
        <g
           transform="matrix(0.1,0,0,-0.1,78.967413,206.83844)"
           id="g3">
          <defs
             id="defs3">
            <path
               id="DejaVuSans-30"
               d="m 2034,4250 q -487,0 -733,-480 -245,-479 -245,-1442 0,-959 245,-1439 246,-480 733,-480 491,0 736,480 246,480 246,1439 0,963 -246,1442 -245,480 -736,480 z m 0,500 q 785,0 1199,-621 414,-620 414,-1801 0,-1178 -414,-1799 -414,-620 -1199,-620 -784,0 -1198,620 -414,621 -414,1799 0,1181 414,1801 414,621 1198,621 z"
               transform="scale(0.015625)" />
          </defs>
          <use
             xlink:href="#DejaVuSans-30"
             id="use3" />
        </g>
      </g>
    </g>
    <g
       id="xtick_2">
      <g
         id="line2d_2">
        <g
           id="g4">
          <use
             xlink:href="#medf70367be"
             x="121.93476"
             y="192.24001"
             style="stroke:#000000;stroke-width:0.8"
             id="use4" />
        </g>
      </g>
      <g
         id="text_2">
        <!-- 1 -->
        <g
           transform="matrix(0.1,0,0,-0.1,118.75351,206.83844)"
           id="g5">
          <defs
             id="defs4">
            <path
               id="DejaVuSans-31"
               d="M 794,531 H 1825 V 4091 L 703,3866 v 575 l 1116,225 h 631 V 531 H 3481 V 0 H 794 Z"
               transform="scale(0.015625)" />
          </defs>
          <use
             xlink:href="#DejaVuSans-31"
             id="use5" />
        </g>
      </g>
    </g>
    <g
       id="xtick_3">
      <g
         id="line2d_3">
        <g
           id="g6">
          <use
             xlink:href="#medf70367be"
             x="161.72086"
             y="192.24001"
             style="stroke:#000000;stroke-width:0.8"
             id="use6" />
        </g>
      </g>
      <g
         id="text_3">
        <!-- 2 -->
        <g
           transform="matrix(0.1,0,0,-0.1,158.53961,206.83844)"
           id="g7">
          <defs
             id="defs6">
            <path
               id="DejaVuSans-32"
               d="M 1228,531 H 3431 V 0 H 469 v 531 q 359,372 979,998 621,627 780,809 303,340 423,576 121,236 121,464 0,372 -261,606 -261,235 -680,235 -297,0 -627,-103 -329,-103 -704,-313 v 638 q 381,153 712,231 332,78 607,78 725,0 1156,-363 431,-362 431,-968 0,-288 -108,-546 -107,-257 -392,-607 -78,-91 -497,-524 Q 1991,1309 1228,531 Z"
               transform="scale(0.015625)" />
          </defs>
          <use
             xlink:href="#DejaVuSans-32"
             id="use7" />
        </g>
      </g>
    </g>
    <g
       id="xtick_4">
      <g
         id="line2d_4">
        <g
           id="g8">
          <use
             xlink:href="#medf70367be"
             x="201.50696"
             y="192.24001"
             style="stroke:#000000;stroke-width:0.8"
             id="use8" />
        </g>
      </g>
      <g
         id="text_4">
        <!-- 3 -->
        <g
           transform="matrix(0.1,0,0,-0.1,198.3257,206.83844)"
           id="g9">
          <defs
             id="defs8">
            <path
               id="DejaVuSans-33"
               d="m 2597,2516 q 453,-97 707,-404 255,-306 255,-756 0,-690 -475,-1069 -475,-378 -1350,-378 -293,0 -604,58 -311,58 -642,174 v 609 q 262,-153 574,-231 313,-78 654,-78 593,0 904,234 311,234 311,681 0,413 -289,645 -289,233 -804,233 h -544 v 519 h 569 q 465,0 712,186 247,186 247,536 0,359 -255,551 -254,193 -729,193 -260,0 -557,-57 -297,-56 -653,-174 v 562 q 360,100 674,150 314,50 592,50 719,0 1137,-327 419,-326 419,-882 0,-388 -222,-655 -222,-267 -631,-370 z"
               transform="scale(0.015625)" />
          </defs>
          <use
             xlink:href="#DejaVuSans-33"
             id="use9" />
        </g>
      </g>
    </g>
    <g
       id="xtick_5">
      <g
         id="line2d_5">
        <g
           id="g10">
          <use
             xlink:href="#medf70367be"
             x="241.29305"
             y="192.24001"
             style="stroke:#000000;stroke-width:0.8"
             id="use10" />
        </g>
      </g>
      <g
         id="text_5">
        <!-- 4 -->
        <g
           transform="matrix(0.1,0,0,-0.1,238.1118,206.83844)"
           id="g11">
          <defs
             id="defs10">
            <path
               id="DejaVuSans-34"
               d="M 2419,4116 825,1625 h 1594 z m -166,550 h 794 V 1625 h 666 V 1100 H 3047 V 0 H 2419 V 1100 H 313 v 609 z"
               transform="scale(0.015625)" />
          </defs>
          <use
             xlink:href="#DejaVuSans-34"
             id="use11" />
        </g>
      </g>
    </g>
    <g
       id="xtick_6">
      <g
         id="line2d_6">
        <g
           id="g12">
          <use
             xlink:href="#medf70367be"
             x="281.07913"
             y="192.24001"
             style="stroke:#000000;stroke-width:0.8"
             id="use12" />
        </g>
      </g>
      <g
         id="text_6">
        <!-- 5 -->
        <g
           transform="matrix(0.1,0,0,-0.1,277.89789,206.83844)"
           id="g13">
          <defs
             id="defs12">
            <path
               id="DejaVuSans-35"
               d="M 691,4666 H 3169 V 4134 H 1269 V 2991 q 137,47 274,70 138,23 276,23 781,0 1237,-428 457,-428 457,-1159 Q 3513,744 3044,326 2575,-91 1722,-91 1428,-91 1123,-41 819,9 494,109 v 635 q 281,-153 581,-228 300,-75 634,-75 541,0 856,284 316,284 316,772 0,487 -316,771 -315,285 -856,285 -253,0 -505,-56 -251,-56 -513,-175 z"
               transform="scale(0.015625)" />
          </defs>
          <use
             xlink:href="#DejaVuSans-35"
             id="use13" />
        </g>
      </g>
    </g>
    <g
       id="xtick_7">
      <g
         id="line2d_7">
        <g
           id="g14">
          <use
             xlink:href="#medf70367be"
             x="320.86523"
             y="192.24001"
             style="stroke:#000000;stroke-width:0.8"
             id="use14" />
        </g>
      </g>
      <g
         id="text_7">
        <!-- 6 -->
        <g
           transform="matrix(0.1,0,0,-0.1,317.68399,206.83844)"
           id="g15">
          <defs
             id="defs14">
            <path
               id="DejaVuSans-36"
               d="m 2113,2584 q -425,0 -674,-291 -248,-290 -248,-796 0,-503 248,-796 249,-292 674,-292 425,0 673,292 248,293 248,796 0,506 -248,796 -248,291 -673,291 z m 1253,1979 v -575 q -238,112 -480,171 -242,60 -480,60 -625,0 -955,-422 -329,-422 -376,-1275 184,272 462,417 279,145 613,145 703,0 1111,-427 408,-426 408,-1160 0,-719 -425,-1154 -425,-434 -1131,-434 -810,0 -1238,620 -428,621 -428,1799 0,1106 525,1764 525,658 1409,658 238,0 480,-47 242,-47 505,-140 z"
               transform="scale(0.015625)" />
          </defs>
          <use
             xlink:href="#DejaVuSans-36"
             id="use15" />
        </g>
      </g>
    </g>
    <g
       id="xtick_8">
      <g
         id="line2d_8">
        <g
           id="g16">
          <use
             xlink:href="#medf70367be"
             x="360.65134"
             y="192.24001"
             style="stroke:#000000;stroke-width:0.8"
             id="use16" />
        </g>
      </g>
      <g
         id="text_8">
        <!-- 7 -->
        <g
           transform="matrix(0.1,0,0,-0.1,357.47009,206.83844)"
           id="g17">
          <defs
             id="defs16">
            <path
               id="DejaVuSans-37"
               d="M 525,4666 H 3525 V 4397 L 1831,0 H 1172 L 2766,4134 H 525 Z"
               transform="scale(0.015625)" />
          </defs>
          <use
             xlink:href="#DejaVuSans-37"
             id="use17" />
        </g>
      </g>
    </g>
  </g>
  <g
     id="matplotlib.axis_2">
    <g
       id="ytick_1">
      <g
         id="line2d_9">
        <defs
           id="defs17">
          <path
             id="m57ba613548"
             d="M 0,0 H -3.5"
             style="stroke:#000000;stroke-width:0.8" />
        </defs>
        <g
           id="g18">
          <use
             xlink:href="#m57ba613548"
             x="54"
             y="192.24001"
             style="stroke:#000000;stroke-width:0.8"
             id="use18" />
        </g>
      </g>
      <g
         id="text_9">
        <!-- 0 -->
        <g
           transform="matrix(0.1,0,0,-0.1,40.6375,196.03922)"
           id="g19">
          <use
             xlink:href="#DejaVuSans-30"
             id="use19" />
        </g>
      </g>
    </g>
    <g
       id="ytick_2">
      <g
         id="line2d_10">
        <g
           id="g20">
          <use
             xlink:href="#m57ba613548"
             x="54"
             y="156.56433"
             style="stroke:#000000;stroke-width:0.8"
             id="use20" />
        </g>
      </g>
      <g
         id="text_10">
        <!-- 50 -->
        <g
           transform="matrix(0.1,0,0,-0.1,34.275,160.36354)"
           id="g22">
          <use
             xlink:href="#DejaVuSans-35"
             id="use21" />
          <use
             xlink:href="#DejaVuSans-30"
             x="63.623047"
             id="use22" />
        </g>
      </g>
    </g>
    <g
       id="ytick_3">
      <g
         id="line2d_11">
        <g
           id="g23">
          <use
             xlink:href="#m57ba613548"
             x="54"
             y="120.88865"
             style="stroke:#000000;stroke-width:0.8"
             id="use23" />
        </g>
      </g>
      <g
         id="text_11">
        <!-- 100 -->
        <g
           transform="matrix(0.1,0,0,-0.1,27.9125,124.68787)"
           id="g26">
          <use
             xlink:href="#DejaVuSans-31"
             id="use24" />
          <use
             xlink:href="#DejaVuSans-30"
             x="63.623047"
             id="use25" />
          <use
             xlink:href="#DejaVuSans-30"
             x="127.24609"
             id="use26" />
        </g>
      </g>
    </g>
    <g
       id="ytick_4">
      <g
         id="line2d_12">
        <g
           id="g27">
          <use
             xlink:href="#m57ba613548"
             x="54"
             y="85.212975"
             style="stroke:#000000;stroke-width:0.8"
             id="use27" />
        </g>
      </g>
      <g
         id="text_12">
        <!-- 150 -->
        <g
           transform="matrix(0.1,0,0,-0.1,27.9125,89.012192)"
           id="g30">
          <use
             xlink:href="#DejaVuSans-31"
             id="use28" />
          <use
             xlink:href="#DejaVuSans-35"
             x="63.623047"
             id="use29" />
          <use
             xlink:href="#DejaVuSans-30"
             x="127.24609"
             id="use30" />
        </g>
      </g>
    </g>
    <g
       id="ytick_5">
      <g
         id="line2d_13">
        <g
           id="g31">
          <use
             xlink:href="#m57ba613548"
             x="54"
             y="49.537296"
             style="stroke:#000000;stroke-width:0.8"
             id="use31" />
        </g>
      </g>
      <g
         id="text_13">
        <!-- 200 -->
        <g
           transform="matrix(0.1,0,0,-0.1,27.9125,53.336516)"
           id="g34">
          <use
             xlink:href="#DejaVuSans-32"
             id="use32" />
          <use
             xlink:href="#DejaVuSans-30"
             x="63.623047"
             id="use33" />
          <use
             xlink:href="#DejaVuSans-30"
             x="127.24609"
             id="use34" />
        </g>
      </g>
    </g>
  </g>
  <g
     id="patch_3">
    <path
       d="M 54,192.24 V 25.92"
       style="fill:none;stroke:#000000;stroke-width:0.8;stroke-linecap:square;stroke-linejoin:miter"
       id="path34" />
  </g>
  <g
     id="patch_4">
    <path
       d="M 388.8,192.24 V 25.92"
       style="fill:none;stroke:#000000;stroke-width:0.8;stroke-linecap:square;stroke-linejoin:miter"
       id="path35" />
  </g>
  <g
     id="patch_5">
    <path
       d="M 54,192.24 H 388.8"
       style="fill:none;stroke:#000000;stroke-width:0.8;stroke-linecap:square;stroke-linejoin:miter"
       id="path36" />
  </g>
  <g
     id="patch_6">
    <path
       d="M 54,25.92 H 388.8"
       style="fill:none;stroke:#000000;stroke-width:0.8;stroke-linecap:square;stroke-linejoin:miter"
       id="path37" />
  </g>
  <g
     id="patch_7">
    <path
       d="M 69.218182,192.24 H 81.154011 V 140.86703 H 69.218182 Z"
       clip-path="url(#p42d940a807)"
       style="fill-opacity:0.533333"
       id="path38" />
  </g>
  <g
     id="patch_8">
    <path
       d="m 109.00428,192.24 h 11.93583 v -41.38378 h -11.93583 z"
       clip-path="url(#p42d940a807)"
       style="fill-opacity:0.533333"
       id="path39" />
  </g>
  <g
     id="patch_9">
    <path
       d="M 148.79037,192.24 H 160.7262 V 33.84 h -11.93583 z"
       clip-path="url(#p42d940a807)"
       style="fill-opacity:0.533333"
       id="path40" />
  </g>
  <g
     id="patch_10">
    <path
       d="M 188.57647,192.24 H 200.5123 V 170.12108 H 188.57647 Z"
       clip-path="url(#p42d940a807)"
       style="fill-opacity:0.533333"
       id="path41" />
  </g>
  <g
     id="patch_11">
    <path
       d="M 228.36257,192.24 H 240.2984 V 179.39676 H 228.36257 Z"
       clip-path="url(#p42d940a807)"
       style="fill-opacity:0.533333"
       id="path42" />
  </g>
  <g
     id="patch_12">
    <path
       d="m 268.14866,192.24 h 11.93583 v -16.41081 h -11.93583 z"
       clip-path="url(#p42d940a807)"
       style="fill-opacity:0.533333"
       id="path43" />
  </g>
  <g
     id="patch_13">
    <path
       d="m 307.93476,192.24 h 11.93583 v -11.41622 h -11.93583 z"
       clip-path="url(#p42d940a807)"
       style="fill-opacity:0.533333"
       id="path44" />
  </g>
  <g
     id="patch_14">
    <path
       d="m 347.72086,192.24 h 11.93582 v -13.55676 h -11.93582 z"
       clip-path="url(#p42d940a807)"
       style="fill-opacity:0.533333"
       id="path45" />
  </g>
  <g
     id="legend_1"
     transform="translate(-55.5,-7.5)">
    <g
       id="patch_15">
      <path
         d="m 61,50.22 h 43.6 q 2,0 2,-2 v -15.3 q 0,-2 -2,-2 H 61 q -2,0 -2,2 v 15.3 q 0,2 2,2 z"
         style="opacity:0.8;fill:#ffffff;stroke:#cccccc;stroke-linejoin:miter"
         id="path46" />
    </g>
    <g
       id="patch_16">
      <path
         d="m 63,44.12 h 20 v -7 H 63 Z"
         style="fill-opacity:0.533333"
         id="path47" />
    </g>
    <g
       id="text_14">
      <!-- $\eta^h$ -->
      <g
         transform="matrix(0.1,0,0,-0.1,91,44.12)"
         id="g48">
        <defs
           id="defs47">
          <path
             id="DejaVuSans-Oblique-3b7"
             d="m 3703,2113 -669,-3444 h -575 l 666,3425 q 97,497 -50,744 -144,246 -531,246 -466,0 -794,-296 -325,-297 -425,-810 L 941,0 H 363 l 681,3500 h 578 l -106,-544 q 265,316 578,472 309,156 675,156 603,0 840,-371 235,-375 94,-1100 z"
             transform="scale(0.015625)" />
          <path
             id="DejaVuSans-Oblique-68"
             d="M 3566,2113 3156,0 h -578 l 410,2091 q 28,147 43,259 16,113 16,178 0,263 -166,409 -165,147 -462,147 -463,0 -802,-313 -339,-312 -439,-830 L 800,0 H 225 l 947,4863 h 575 L 1375,2950 q 219,294 559,464 341,170 716,170 463,0 717,-250 255,-250 255,-703 0,-112 -14,-240 -14,-128 -42,-278 z"
             transform="scale(0.015625)" />
        </defs>
        <use
           xlink:href="#DejaVuSans-Oblique-3b7"
           transform="translate(0,0.529687)"
           id="use47" />
        <use
           xlink:href="#DejaVuSans-Oblique-68"
           transform="matrix(0.7,0,0,0.7,68.028802,38.810937)"
           id="use48" />
      </g>
    </g>
  </g>
  <g
     id="matplotlib.axis_3">
    <g
       id="ytick_6">
      <g
         id="line2d_14">
        <defs
           id="defs48">
          <path
             id="m1cf49c0dc4"
             d="M 0,0 H 3.5"
             style="stroke:#000000;stroke-width:0.8" />
        </defs>
        <g
           id="g49">
          <use
             xlink:href="#m1cf49c0dc4"
             x="388.79999"
             y="192.24001"
             style="stroke:#000000;stroke-width:0.8"
             id="use49" />
        </g>
      </g>
      <g
         id="text_15">
        <!-- 0 -->
        <g
           transform="matrix(0.1,0,0,-0.1,395.8,196.03922)"
           id="g50">
          <use
             xlink:href="#DejaVuSans-30"
             id="use50" />
        </g>
      </g>
    </g>
    <g
       id="ytick_7">
      <g
         id="line2d_15">
        <g
           id="g51">
          <use
             xlink:href="#m1cf49c0dc4"
             x="388.79999"
             y="144.72"
             style="stroke:#000000;stroke-width:0.8"
             id="use51" />
        </g>
      </g>
      <g
         id="text_16">
        <!-- 1 -->
        <g
           transform="matrix(0.1,0,0,-0.1,395.8,148.51922)"
           id="g52">
          <use
             xlink:href="#DejaVuSans-31"
             id="use52" />
        </g>
      </g>
    </g>
    <g
       id="ytick_8">
      <g
         id="line2d_16">
        <g
           id="g53">
          <use
             xlink:href="#m1cf49c0dc4"
             x="388.79999"
             y="97.199997"
             style="stroke:#000000;stroke-width:0.8"
             id="use53" />
        </g>
      </g>
      <g
         id="text_17">
        <!-- 2 -->
        <g
           transform="matrix(0.1,0,0,-0.1,395.8,100.99922)"
           id="g54">
          <use
             xlink:href="#DejaVuSans-32"
             id="use54" />
        </g>
      </g>
    </g>
    <g
       id="ytick_9">
      <g
         id="line2d_17">
        <g
           id="g55">
          <use
             xlink:href="#m1cf49c0dc4"
             x="388.79999"
             y="49.68"
             style="stroke:#000000;stroke-width:0.8"
             id="use55" />
        </g>
      </g>
      <g
         id="text_18">
        <!-- 3 -->
        <g
           transform="matrix(0.1,0,0,-0.1,395.8,53.479219)"
           id="g56">
          <use
             xlink:href="#DejaVuSans-33"
             id="use56" />
        </g>
      </g>
    </g>
  </g>
  <g
     id="patch_17">
    <path
       d="M 54,192.24 V 25.92"
       style="fill:none;stroke:#000000;stroke-width:0.8;stroke-linecap:square;stroke-linejoin:miter"
       id="path56" />
  </g>
  <g
     id="patch_18">
    <path
       d="M 388.8,192.24 V 25.92"
       style="fill:none;stroke:#000000;stroke-width:0.8;stroke-linecap:square;stroke-linejoin:miter"
       id="path57" />
  </g>
  <g
     id="patch_19">
    <path
       d="M 54,192.24 H 388.8"
       style="fill:none;stroke:#000000;stroke-width:0.8;stroke-linecap:square;stroke-linejoin:miter"
       id="path58" />
  </g>
  <g
     id="patch_20">
    <path
       d="M 54,25.92 H 388.8"
       style="fill:none;stroke:#000000;stroke-width:0.8;stroke-linecap:square;stroke-linejoin:miter"
       id="path59" />
  </g>
  <g
     id="patch_21">
    <path
       d="M 83.143316,192.24 H 95.079144 V 144.72 H 83.143316 Z"
       clip-path="url(#p42d940a807)"
       style="fill:#ffa500"
       id="path60" />
  </g>
  <g
     id="patch_22">
    <path
       d="m 122.92941,192.24 h 11.93583 V 49.68 h -11.93583 z"
       clip-path="url(#p42d940a807)"
       style="fill:#ffa500"
       id="path61" />
  </g>
  <g
     id="patch_23">
    <path
       d="m 162.71551,192.24 h 11.93583 V 49.68 h -11.93583 z"
       clip-path="url(#p42d940a807)"
       style="fill:#ffa500"
       id="path62" />
  </g>
  <g
     id="patch_24">
    <path
       d="m 202.5016,192.24 h 11.93583 V 144.72 H 202.5016 Z"
       clip-path="url(#p42d940a807)"
       style="fill:#ffa500"
       id="path63" />
  </g>
  <g
     id="patch_25">
    <path
       d="m 242.2877,192.24 h 11.93583 v 0 z"
       clip-path="url(#p42d940a807)"
       style="fill:#ffa500"
       id="path64" />
  </g>
  <g
     id="patch_26">
    <path
       d="m 282.0738,192.24 h 11.93583 V 49.68 H 282.0738 Z"
       clip-path="url(#p42d940a807)"
       style="fill:#ffa500"
       id="path65" />
  </g>
  <g
     id="patch_27">
    <path
       d="m 321.85989,192.24 h 11.93583 v 0 z"
       clip-path="url(#p42d940a807)"
       style="fill:#ffa500"
       id="path66" />
  </g>
  <g
     id="patch_28">
    <path
       d="m 361.64599,192.24 h 11.93583 v 0 z"
       clip-path="url(#p42d940a807)"
       style="fill:#ffa500"
       id="path67" />
  </g>
  <g
     id="legend_2"
     transform="translate(55.5,-7.5)">
    <g
       id="patch_29">
      <path
         d="m 338.2,50.22 h 43.6 q 2,0 2,-2 v -15.3 q 0,-2 -2,-2 h -43.6 q -2,0 -2,2 v 15.3 q 0,2 2,2 z"
         style="opacity:0.8;fill:#ffffff;stroke:#cccccc;stroke-linejoin:miter"
         id="path68" />
    </g>
    <g
       id="patch_30">
      <path
         d="m 340.2,44.12 h 20 v -7 h -20 z"
         style="fill:#ffa500"
         id="path69" />
    </g>
    <g
       id="text_19">
      <!-- $\rho^h$ -->
      <g
         transform="matrix(0.1,0,0,-0.1,368.2,44.12)"
         id="g70">
        <defs
           id="defs69">
          <path
             id="DejaVuSans-Oblique-3c1"
             d="m 1203,2875 q 250,319 778,600 207,109 775,109 638,0 938,-506 300,-506 140,-1331 Q 3672,922 3175,415 2678,-91 2041,-91 1656,-91 1409,63 1163,213 1044,525 L 681,-1331 H 103 l 594,3047 q 141,722 506,1159 z M 3238,1747 q 121,634 -69,997 -191,359 -647,359 -456,0 -788,-359 -331,-363 -453,-997 -125,-634 66,-997 191,-359 647,-359 456,0 787,359 332,363 457,997 z"
             transform="scale(0.015625)" />
        </defs>
        <use
           xlink:href="#DejaVuSans-Oblique-3c1"
           transform="translate(0,0.529687)"
           id="use69" />
        <use
           xlink:href="#DejaVuSans-Oblique-68"
           transform="matrix(0.7,0,0,0.7,68.126458,38.810937)"
           id="use70" />
      </g>
    </g>
  </g>
  <g
     id="text_20"
     transform="translate(0,-3)">
    <!-- slot index -->
    <g
       transform="matrix(0.1,0,0,-0.1,191.71719,221.4)"
       id="g80">
      <defs
         id="defs70">
        <path
           id="DejaVuSans-73"
           d="m 2834,3397 v -544 q -243,125 -506,187 -262,63 -544,63 -428,0 -642,-131 -214,-131 -214,-394 0,-200 153,-314 153,-114 616,-217 l 197,-44 q 612,-131 870,-370 258,-239 258,-667 0,-488 -386,-773 Q 2250,-91 1575,-91 1294,-91 989,-36 684,19 347,128 v 594 q 319,-166 628,-249 309,-82 613,-82 406,0 624,139 219,139 219,392 0,234 -158,359 -157,125 -692,241 l -200,47 q -534,112 -772,345 -237,233 -237,639 0,494 350,762 350,269 994,269 318,0 599,-47 282,-46 519,-140 z"
           transform="scale(0.015625)" />
        <path
           id="DejaVuSans-6c"
           d="m 603,4863 h 575 V 0 H 603 Z"
           transform="scale(0.015625)" />
        <path
           id="DejaVuSans-6f"
           d="m 1959,3097 q -462,0 -731,-361 -269,-361 -269,-989 0,-628 267,-989 268,-361 733,-361 460,0 728,362 269,363 269,988 0,622 -269,986 -268,364 -728,364 z m 0,487 q 750,0 1178,-488 429,-487 429,-1349 Q 3566,888 3137,398 2709,-91 1959,-91 1206,-91 779,398 353,888 353,1747 q 0,862 426,1349 427,488 1180,488 z"
           transform="scale(0.015625)" />
        <path
           id="DejaVuSans-74"
           d="M 1172,4494 V 3500 H 2356 V 3053 H 1172 V 1153 q 0,-428 117,-550 117,-122 477,-122 h 590 V 0 H 1766 Q 1100,0 847,248 594,497 594,1153 V 3053 H 172 v 447 h 422 v 994 z"
           transform="scale(0.015625)" />
        <path
           id="DejaVuSans-20"
           transform="scale(0.015625)"
           d="" />
        <path
           id="DejaVuSans-69"
           d="m 603,3500 h 575 V 0 H 603 Z m 0,1363 h 575 V 4134 H 603 Z"
           transform="scale(0.015625)" />
        <path
           id="DejaVuSans-6e"
           d="M 3513,2113 V 0 h -575 v 2094 q 0,497 -194,743 -194,247 -581,247 -466,0 -735,-297 -269,-296 -269,-809 V 0 H 581 v 3500 h 578 v -544 q 207,316 486,472 280,156 646,156 603,0 912,-373 310,-373 310,-1098 z"
           transform="scale(0.015625)" />
        <path
           id="DejaVuSans-64"
           d="m 2906,2969 v 1894 h 575 V 0 H 2906 V 525 Q 2725,213 2448,61 2172,-91 1784,-91 1150,-91 751,415 353,922 353,1747 q 0,825 398,1331 399,506 1033,506 388,0 664,-152 277,-151 458,-463 z M 947,1747 q 0,-634 261,-995 261,-361 717,-361 456,0 718,361 263,361 263,995 0,634 -263,995 -262,361 -718,361 -456,0 -717,-361 -261,-361 -261,-995 z"
           transform="scale(0.015625)" />
        <path
           id="DejaVuSans-65"
           d="M 3597,1894 V 1613 H 953 q 38,-594 358,-905 320,-311 892,-311 331,0 642,81 311,81 618,244 V 178 Q 3153,47 2828,-22 2503,-91 2169,-91 1331,-91 842,396 353,884 353,1716 q 0,859 464,1363 464,505 1252,505 706,0 1117,-455 411,-454 411,-1235 z m -575,169 q -6,471 -264,752 -258,282 -683,282 -481,0 -770,-272 -289,-272 -333,-766 z"
           transform="scale(0.015625)" />
        <path
           id="DejaVuSans-78"
           d="M 3513,3500 2247,1797 3578,0 H 2900 L 1881,1375 863,0 H 184 L 1544,1831 300,3500 h 678 l 928,-1247 928,1247 z"
           transform="scale(0.015625)" />
      </defs>
      <use
         xlink:href="#DejaVuSans-73"
         id="use71" />
      <use
         xlink:href="#DejaVuSans-6c"
         x="52.099609"
         id="use72" />
      <use
         xlink:href="#DejaVuSans-6f"
         x="79.882812"
         id="use73" />
      <use
         xlink:href="#DejaVuSans-74"
         x="141.06445"
         id="use74" />
      <use
         xlink:href="#DejaVuSans-20"
         x="180.27344"
         id="use75" />
      <use
         xlink:href="#DejaVuSans-69"
         x="212.06055"
         id="use76" />
      <use
         xlink:href="#DejaVuSans-6e"
         x="239.84375"
         id="use77" />
      <use
         xlink:href="#DejaVuSans-64"
         x="303.22266"
         id="use78" />
      <use
         xlink:href="#DejaVuSans-65"
         x="366.69922"
         id="use79" />
      <use
         xlink:href="#DejaVuSans-78"
         x="426.47266"
         id="use80" />
    </g>
  </g>
  <defs
     id="defs80">
    <clipPath
       id="p42d940a807">
      <rect
         x="54"
         y="25.92"
         width="334.79999"
         height="166.32001"
         id="rect80" />
    </clipPath>
  </defs>
</svg>
