<?xml version="1.0" encoding="utf-8" standalone="no"?>
<!DOCTYPE svg PUBLIC "-//W3C//DTD SVG 1.1//EN"
  "http://www.w3.org/Graphics/SVG/1.1/DTD/svg11.dtd">
<svg xmlns:xlink="http://www.w3.org/1999/xlink" width="544.429687pt" height="187.395938pt" viewBox="0 0 544.429687 187.395938" xmlns="http://www.w3.org/2000/svg" version="1.1">
 <metadata>
  <rdf:RDF xmlns:dc="http://purl.org/dc/elements/1.1/" xmlns:cc="http://creativecommons.org/ns#" xmlns:rdf="http://www.w3.org/1999/02/22-rdf-syntax-ns#">
   <cc:Work>
    <dc:type rdf:resource="http://purl.org/dc/dcmitype/StillImage"/>
    <dc:date>2024-06-18T10:01:43.337916</dc:date>
    <dc:format>image/svg+xml</dc:format>
    <dc:creator>
     <cc:Agent>
      <dc:title>Matplotlib v3.9.0, https://matplotlib.org/</dc:title>
     </cc:Agent>
    </dc:creator>
   </cc:Work>
  </rdf:RDF>
 </metadata>
 <defs>
  <style type="text/css">*{stroke-linejoin: round; stroke-linecap: butt}</style>
 </defs>
 <g id="figure_1">
  <g id="patch_1">
   <path d="M 0 187.395938 
L 544.429687 187.395938 
L 544.429687 0 
L 0 0 
z
" style="fill: #ffffff"/>
  </g>
  <g id="axes_1">
   <g id="patch_2">
    <path d="M 83.214844 133.198125 
L 260.760298 133.198125 
L 260.760298 22.318125 
L 83.214844 22.318125 
z
" style="fill: #ffffff"/>
   </g>
   <g id="patch_3">
    <path d="M 91.331207 133.198125 
L 96.531095 133.198125 
L 96.531095 27.598125 
L 91.331207 27.598125 
z
" clip-path="url(#pd8f6beda05)" style="fill: #0000ff; fill-opacity: 0.4"/>
   </g>
   <g id="patch_4">
    <path d="M 96.531095 133.198125 
L 101.730984 133.198125 
L 101.730984 133.198125 
L 96.531095 133.198125 
z
" clip-path="url(#pd8f6beda05)" style="fill: #0000ff; fill-opacity: 0.4"/>
   </g>
   <g id="patch_5">
    <path d="M 101.730984 133.198125 
L 106.930872 133.198125 
L 106.930872 97.998125 
L 101.730984 97.998125 
z
" clip-path="url(#pd8f6beda05)" style="fill: #0000ff; fill-opacity: 0.4"/>
   </g>
   <g id="patch_6">
    <path d="M 106.930872 133.198125 
L 112.13076 133.198125 
L 112.13076 97.998125 
L 106.930872 97.998125 
z
" clip-path="url(#pd8f6beda05)" style="fill: #0000ff; fill-opacity: 0.4"/>
   </g>
   <g id="patch_7">
    <path d="M 112.13076 133.198125 
L 117.330648 133.198125 
L 117.330648 97.998125 
L 112.13076 97.998125 
z
" clip-path="url(#pd8f6beda05)" style="fill: #0000ff; fill-opacity: 0.4"/>
   </g>
   <g id="patch_8">
    <path d="M 117.330648 133.198125 
L 122.530536 133.198125 
L 122.530536 62.798125 
L 117.330648 62.798125 
z
" clip-path="url(#pd8f6beda05)" style="fill: #0000ff; fill-opacity: 0.4"/>
   </g>
   <g id="patch_9">
    <path d="M 122.530536 133.198125 
L 127.730424 133.198125 
L 127.730424 133.198125 
L 122.530536 133.198125 
z
" clip-path="url(#pd8f6beda05)" style="fill: #0000ff; fill-opacity: 0.4"/>
   </g>
   <g id="patch_10">
    <path d="M 127.730424 133.198125 
L 132.930312 133.198125 
L 132.930312 97.998125 
L 127.730424 97.998125 
z
" clip-path="url(#pd8f6beda05)" style="fill: #0000ff; fill-opacity: 0.4"/>
   </g>
   <g id="patch_11">
    <path d="M 132.930312 133.198125 
L 138.1302 133.198125 
L 138.1302 133.198125 
L 132.930312 133.198125 
z
" clip-path="url(#pd8f6beda05)" style="fill: #0000ff; fill-opacity: 0.4"/>
   </g>
   <g id="patch_12">
    <path d="M 138.1302 133.198125 
L 143.330088 133.198125 
L 143.330088 97.998125 
L 138.1302 97.998125 
z
" clip-path="url(#pd8f6beda05)" style="fill: #0000ff; fill-opacity: 0.4"/>
   </g>
   <g id="patch_13">
    <path d="M 143.330088 133.198125 
L 148.529976 133.198125 
L 148.529976 133.198125 
L 143.330088 133.198125 
z
" clip-path="url(#pd8f6beda05)" style="fill: #0000ff; fill-opacity: 0.4"/>
   </g>
   <g id="patch_14">
    <path d="M 148.529976 133.198125 
L 153.729865 133.198125 
L 153.729865 133.198125 
L 148.529976 133.198125 
z
" clip-path="url(#pd8f6beda05)" style="fill: #0000ff; fill-opacity: 0.4"/>
   </g>
   <g id="patch_15">
    <path d="M 153.729865 133.198125 
L 158.929753 133.198125 
L 158.929753 133.198125 
L 153.729865 133.198125 
z
" clip-path="url(#pd8f6beda05)" style="fill: #0000ff; fill-opacity: 0.4"/>
   </g>
   <g id="patch_16">
    <path d="M 158.929753 133.198125 
L 164.129641 133.198125 
L 164.129641 97.998125 
L 158.929753 97.998125 
z
" clip-path="url(#pd8f6beda05)" style="fill: #0000ff; fill-opacity: 0.4"/>
   </g>
   <g id="patch_17">
    <path d="M 164.129641 133.198125 
L 169.329529 133.198125 
L 169.329529 133.198125 
L 164.129641 133.198125 
z
" clip-path="url(#pd8f6beda05)" style="fill: #0000ff; fill-opacity: 0.4"/>
   </g>
   <g id="patch_18">
    <path d="M 169.329529 133.198125 
L 174.529417 133.198125 
L 174.529417 133.198125 
L 169.329529 133.198125 
z
" clip-path="url(#pd8f6beda05)" style="fill: #0000ff; fill-opacity: 0.4"/>
   </g>
   <g id="patch_19">
    <path d="M 174.529417 133.198125 
L 179.729305 133.198125 
L 179.729305 97.998125 
L 174.529417 97.998125 
z
" clip-path="url(#pd8f6beda05)" style="fill: #0000ff; fill-opacity: 0.4"/>
   </g>
   <g id="patch_20">
    <path d="M 179.729305 133.198125 
L 184.929193 133.198125 
L 184.929193 97.998125 
L 179.729305 97.998125 
z
" clip-path="url(#pd8f6beda05)" style="fill: #0000ff; fill-opacity: 0.4"/>
   </g>
   <g id="patch_21">
    <path d="M 184.929193 133.198125 
L 190.129081 133.198125 
L 190.129081 62.798125 
L 184.929193 62.798125 
z
" clip-path="url(#pd8f6beda05)" style="fill: #0000ff; fill-opacity: 0.4"/>
   </g>
   <g id="patch_22">
    <path d="M 190.129081 133.198125 
L 195.328969 133.198125 
L 195.328969 97.998125 
L 190.129081 97.998125 
z
" clip-path="url(#pd8f6beda05)" style="fill: #0000ff; fill-opacity: 0.4"/>
   </g>
   <g id="patch_23">
    <path d="M 195.328969 133.198125 
L 200.528857 133.198125 
L 200.528857 133.198125 
L 195.328969 133.198125 
z
" clip-path="url(#pd8f6beda05)" style="fill: #0000ff; fill-opacity: 0.4"/>
   </g>
   <g id="patch_24">
    <path d="M 200.528857 133.198125 
L 205.728746 133.198125 
L 205.728746 133.198125 
L 200.528857 133.198125 
z
" clip-path="url(#pd8f6beda05)" style="fill: #0000ff; fill-opacity: 0.4"/>
   </g>
   <g id="patch_25">
    <path d="M 205.728746 133.198125 
L 210.928634 133.198125 
L 210.928634 133.198125 
L 205.728746 133.198125 
z
" clip-path="url(#pd8f6beda05)" style="fill: #0000ff; fill-opacity: 0.4"/>
   </g>
   <g id="patch_26">
    <path d="M 210.928634 133.198125 
L 216.128522 133.198125 
L 216.128522 133.198125 
L 210.928634 133.198125 
z
" clip-path="url(#pd8f6beda05)" style="fill: #0000ff; fill-opacity: 0.4"/>
   </g>
   <g id="patch_27">
    <path d="M 216.128522 133.198125 
L 221.32841 133.198125 
L 221.32841 133.198125 
L 216.128522 133.198125 
z
" clip-path="url(#pd8f6beda05)" style="fill: #0000ff; fill-opacity: 0.4"/>
   </g>
   <g id="patch_28">
    <path d="M 221.32841 133.198125 
L 226.528298 133.198125 
L 226.528298 133.198125 
L 221.32841 133.198125 
z
" clip-path="url(#pd8f6beda05)" style="fill: #0000ff; fill-opacity: 0.4"/>
   </g>
   <g id="patch_29">
    <path d="M 226.528298 133.198125 
L 231.728186 133.198125 
L 231.728186 133.198125 
L 226.528298 133.198125 
z
" clip-path="url(#pd8f6beda05)" style="fill: #0000ff; fill-opacity: 0.4"/>
   </g>
   <g id="patch_30">
    <path d="M 231.728186 133.198125 
L 236.928074 133.198125 
L 236.928074 133.198125 
L 231.728186 133.198125 
z
" clip-path="url(#pd8f6beda05)" style="fill: #0000ff; fill-opacity: 0.4"/>
   </g>
   <g id="patch_31">
    <path d="M 236.928074 133.198125 
L 242.127962 133.198125 
L 242.127962 133.198125 
L 236.928074 133.198125 
z
" clip-path="url(#pd8f6beda05)" style="fill: #0000ff; fill-opacity: 0.4"/>
   </g>
   <g id="patch_32">
    <path d="M 242.127962 133.198125 
L 247.32785 133.198125 
L 247.32785 97.998125 
L 242.127962 97.998125 
z
" clip-path="url(#pd8f6beda05)" style="fill: #0000ff; fill-opacity: 0.4"/>
   </g>
   <g id="matplotlib.axis_1">
    <g id="xtick_1">
     <g id="line2d_1">
      <defs>
       <path id="m44ad268284" d="M 0 0 
L 0 3.5 
" style="stroke: #000000; stroke-width: 0.8"/>
      </defs>
      <g>
       <use xlink:href="#m44ad268284" x="83.214844" y="133.198125" style="stroke: #000000; stroke-width: 0.8"/>
      </g>
     </g>
     <g id="text_1">
      <!-- 0 -->
      <g transform="translate(80.033594 147.796563) scale(0.1 -0.1)">
       <defs>
        <path id="DejaVuSans-30" d="M 2034 4250 
Q 1547 4250 1301 3770 
Q 1056 3291 1056 2328 
Q 1056 1369 1301 889 
Q 1547 409 2034 409 
Q 2525 409 2770 889 
Q 3016 1369 3016 2328 
Q 3016 3291 2770 3770 
Q 2525 4250 2034 4250 
z
M 2034 4750 
Q 2819 4750 3233 4129 
Q 3647 3509 3647 2328 
Q 3647 1150 3233 529 
Q 2819 -91 2034 -91 
Q 1250 -91 836 529 
Q 422 1150 422 2328 
Q 422 3509 836 4129 
Q 1250 4750 2034 4750 
z
" transform="scale(0.015625)"/>
       </defs>
       <use xlink:href="#DejaVuSans-30"/>
      </g>
     </g>
    </g>
    <g id="xtick_2">
     <g id="line2d_2">
      <g>
       <use xlink:href="#m44ad268284" x="108.57848" y="133.198125" style="stroke: #000000; stroke-width: 0.8"/>
      </g>
     </g>
     <g id="text_2">
      <!-- 1 -->
      <g transform="translate(105.39723 147.796563) scale(0.1 -0.1)">
       <defs>
        <path id="DejaVuSans-31" d="M 794 531 
L 1825 531 
L 1825 4091 
L 703 3866 
L 703 4441 
L 1819 4666 
L 2450 4666 
L 2450 531 
L 3481 531 
L 3481 0 
L 794 0 
L 794 531 
z
" transform="scale(0.015625)"/>
       </defs>
       <use xlink:href="#DejaVuSans-31"/>
      </g>
     </g>
    </g>
    <g id="xtick_3">
     <g id="line2d_3">
      <g>
       <use xlink:href="#m44ad268284" x="133.942116" y="133.198125" style="stroke: #000000; stroke-width: 0.8"/>
      </g>
     </g>
     <g id="text_3">
      <!-- 2 -->
      <g transform="translate(130.760866 147.796563) scale(0.1 -0.1)">
       <defs>
        <path id="DejaVuSans-32" d="M 1228 531 
L 3431 531 
L 3431 0 
L 469 0 
L 469 531 
Q 828 903 1448 1529 
Q 2069 2156 2228 2338 
Q 2531 2678 2651 2914 
Q 2772 3150 2772 3378 
Q 2772 3750 2511 3984 
Q 2250 4219 1831 4219 
Q 1534 4219 1204 4116 
Q 875 4013 500 3803 
L 500 4441 
Q 881 4594 1212 4672 
Q 1544 4750 1819 4750 
Q 2544 4750 2975 4387 
Q 3406 4025 3406 3419 
Q 3406 3131 3298 2873 
Q 3191 2616 2906 2266 
Q 2828 2175 2409 1742 
Q 1991 1309 1228 531 
z
" transform="scale(0.015625)"/>
       </defs>
       <use xlink:href="#DejaVuSans-32"/>
      </g>
     </g>
    </g>
    <g id="xtick_4">
     <g id="line2d_4">
      <g>
       <use xlink:href="#m44ad268284" x="159.305753" y="133.198125" style="stroke: #000000; stroke-width: 0.8"/>
      </g>
     </g>
     <g id="text_4">
      <!-- 3 -->
      <g transform="translate(156.124503 147.796563) scale(0.1 -0.1)">
       <defs>
        <path id="DejaVuSans-33" d="M 2597 2516 
Q 3050 2419 3304 2112 
Q 3559 1806 3559 1356 
Q 3559 666 3084 287 
Q 2609 -91 1734 -91 
Q 1441 -91 1130 -33 
Q 819 25 488 141 
L 488 750 
Q 750 597 1062 519 
Q 1375 441 1716 441 
Q 2309 441 2620 675 
Q 2931 909 2931 1356 
Q 2931 1769 2642 2001 
Q 2353 2234 1838 2234 
L 1294 2234 
L 1294 2753 
L 1863 2753 
Q 2328 2753 2575 2939 
Q 2822 3125 2822 3475 
Q 2822 3834 2567 4026 
Q 2313 4219 1838 4219 
Q 1578 4219 1281 4162 
Q 984 4106 628 3988 
L 628 4550 
Q 988 4650 1302 4700 
Q 1616 4750 1894 4750 
Q 2613 4750 3031 4423 
Q 3450 4097 3450 3541 
Q 3450 3153 3228 2886 
Q 3006 2619 2597 2516 
z
" transform="scale(0.015625)"/>
       </defs>
       <use xlink:href="#DejaVuSans-33"/>
      </g>
     </g>
    </g>
    <g id="xtick_5">
     <g id="line2d_5">
      <g>
       <use xlink:href="#m44ad268284" x="184.669389" y="133.198125" style="stroke: #000000; stroke-width: 0.8"/>
      </g>
     </g>
     <g id="text_5">
      <!-- 4 -->
      <g transform="translate(181.488139 147.796563) scale(0.1 -0.1)">
       <defs>
        <path id="DejaVuSans-34" d="M 2419 4116 
L 825 1625 
L 2419 1625 
L 2419 4116 
z
M 2253 4666 
L 3047 4666 
L 3047 1625 
L 3713 1625 
L 3713 1100 
L 3047 1100 
L 3047 0 
L 2419 0 
L 2419 1100 
L 313 1100 
L 313 1709 
L 2253 4666 
z
" transform="scale(0.015625)"/>
       </defs>
       <use xlink:href="#DejaVuSans-34"/>
      </g>
     </g>
    </g>
    <g id="xtick_6">
     <g id="line2d_6">
      <g>
       <use xlink:href="#m44ad268284" x="210.033026" y="133.198125" style="stroke: #000000; stroke-width: 0.8"/>
      </g>
     </g>
     <g id="text_6">
      <!-- 5 -->
      <g transform="translate(206.851776 147.796563) scale(0.1 -0.1)">
       <defs>
        <path id="DejaVuSans-35" d="M 691 4666 
L 3169 4666 
L 3169 4134 
L 1269 4134 
L 1269 2991 
Q 1406 3038 1543 3061 
Q 1681 3084 1819 3084 
Q 2600 3084 3056 2656 
Q 3513 2228 3513 1497 
Q 3513 744 3044 326 
Q 2575 -91 1722 -91 
Q 1428 -91 1123 -41 
Q 819 9 494 109 
L 494 744 
Q 775 591 1075 516 
Q 1375 441 1709 441 
Q 2250 441 2565 725 
Q 2881 1009 2881 1497 
Q 2881 1984 2565 2268 
Q 2250 2553 1709 2553 
Q 1456 2553 1204 2497 
Q 953 2441 691 2322 
L 691 4666 
z
" transform="scale(0.015625)"/>
       </defs>
       <use xlink:href="#DejaVuSans-35"/>
      </g>
     </g>
    </g>
    <g id="xtick_7">
     <g id="line2d_7">
      <g>
       <use xlink:href="#m44ad268284" x="235.396662" y="133.198125" style="stroke: #000000; stroke-width: 0.8"/>
      </g>
     </g>
     <g id="text_7">
      <!-- 6 -->
      <g transform="translate(232.215412 147.796563) scale(0.1 -0.1)">
       <defs>
        <path id="DejaVuSans-36" d="M 2113 2584 
Q 1688 2584 1439 2293 
Q 1191 2003 1191 1497 
Q 1191 994 1439 701 
Q 1688 409 2113 409 
Q 2538 409 2786 701 
Q 3034 994 3034 1497 
Q 3034 2003 2786 2293 
Q 2538 2584 2113 2584 
z
M 3366 4563 
L 3366 3988 
Q 3128 4100 2886 4159 
Q 2644 4219 2406 4219 
Q 1781 4219 1451 3797 
Q 1122 3375 1075 2522 
Q 1259 2794 1537 2939 
Q 1816 3084 2150 3084 
Q 2853 3084 3261 2657 
Q 3669 2231 3669 1497 
Q 3669 778 3244 343 
Q 2819 -91 2113 -91 
Q 1303 -91 875 529 
Q 447 1150 447 2328 
Q 447 3434 972 4092 
Q 1497 4750 2381 4750 
Q 2619 4750 2861 4703 
Q 3103 4656 3366 4563 
z
" transform="scale(0.015625)"/>
       </defs>
       <use xlink:href="#DejaVuSans-36"/>
      </g>
     </g>
    </g>
    <g id="xtick_8">
     <g id="line2d_8">
      <g>
       <use xlink:href="#m44ad268284" x="260.760298" y="133.198125" style="stroke: #000000; stroke-width: 0.8"/>
      </g>
     </g>
     <g id="text_8">
      <!-- 7 -->
      <g transform="translate(257.579048 147.796563) scale(0.1 -0.1)">
       <defs>
        <path id="DejaVuSans-37" d="M 525 4666 
L 3525 4666 
L 3525 4397 
L 1831 0 
L 1172 0 
L 2766 4134 
L 525 4134 
L 525 4666 
z
" transform="scale(0.015625)"/>
       </defs>
       <use xlink:href="#DejaVuSans-37"/>
      </g>
     </g>
    </g>
    <g id="text_9">
     <!-- 1 Hour -->
     <g transform="translate(155.173509 161.474688) scale(0.1 -0.1)">
      <defs>
       <path id="DejaVuSans-20" transform="scale(0.015625)"/>
       <path id="DejaVuSans-48" d="M 628 4666 
L 1259 4666 
L 1259 2753 
L 3553 2753 
L 3553 4666 
L 4184 4666 
L 4184 0 
L 3553 0 
L 3553 2222 
L 1259 2222 
L 1259 0 
L 628 0 
L 628 4666 
z
" transform="scale(0.015625)"/>
       <path id="DejaVuSans-6f" d="M 1959 3097 
Q 1497 3097 1228 2736 
Q 959 2375 959 1747 
Q 959 1119 1226 758 
Q 1494 397 1959 397 
Q 2419 397 2687 759 
Q 2956 1122 2956 1747 
Q 2956 2369 2687 2733 
Q 2419 3097 1959 3097 
z
M 1959 3584 
Q 2709 3584 3137 3096 
Q 3566 2609 3566 1747 
Q 3566 888 3137 398 
Q 2709 -91 1959 -91 
Q 1206 -91 779 398 
Q 353 888 353 1747 
Q 353 2609 779 3096 
Q 1206 3584 1959 3584 
z
" transform="scale(0.015625)"/>
       <path id="DejaVuSans-75" d="M 544 1381 
L 544 3500 
L 1119 3500 
L 1119 1403 
Q 1119 906 1312 657 
Q 1506 409 1894 409 
Q 2359 409 2629 706 
Q 2900 1003 2900 1516 
L 2900 3500 
L 3475 3500 
L 3475 0 
L 2900 0 
L 2900 538 
Q 2691 219 2414 64 
Q 2138 -91 1772 -91 
Q 1169 -91 856 284 
Q 544 659 544 1381 
z
M 1991 3584 
L 1991 3584 
z
" transform="scale(0.015625)"/>
       <path id="DejaVuSans-72" d="M 2631 2963 
Q 2534 3019 2420 3045 
Q 2306 3072 2169 3072 
Q 1681 3072 1420 2755 
Q 1159 2438 1159 1844 
L 1159 0 
L 581 0 
L 581 3500 
L 1159 3500 
L 1159 2956 
Q 1341 3275 1631 3429 
Q 1922 3584 2338 3584 
Q 2397 3584 2469 3576 
Q 2541 3569 2628 3553 
L 2631 2963 
z
" transform="scale(0.015625)"/>
      </defs>
      <use xlink:href="#DejaVuSans-31"/>
      <use xlink:href="#DejaVuSans-20" x="63.623047"/>
      <use xlink:href="#DejaVuSans-48" x="95.410156"/>
      <use xlink:href="#DejaVuSans-6f" x="170.605469"/>
      <use xlink:href="#DejaVuSans-75" x="231.787109"/>
      <use xlink:href="#DejaVuSans-72" x="295.166016"/>
     </g>
    </g>
   </g>
   <g id="matplotlib.axis_2">
    <g id="ytick_1">
     <g id="line2d_9">
      <defs>
       <path id="m2b84c1705f" d="M 0 0 
L -3.5 0 
" style="stroke: #000000; stroke-width: 0.8"/>
      </defs>
      <g>
       <use xlink:href="#m2b84c1705f" x="83.214844" y="133.198125" style="stroke: #000000; stroke-width: 0.8"/>
      </g>
     </g>
     <g id="text_10">
      <!-- 0 -->
      <g transform="translate(69.852344 136.997344) scale(0.1 -0.1)">
       <use xlink:href="#DejaVuSans-30"/>
      </g>
     </g>
    </g>
    <g id="ytick_2">
     <g id="line2d_10">
      <g>
       <use xlink:href="#m2b84c1705f" x="83.214844" y="97.998125" style="stroke: #000000; stroke-width: 0.8"/>
      </g>
     </g>
     <g id="text_11">
      <!-- 1 -->
      <g transform="translate(69.852344 101.797344) scale(0.1 -0.1)">
       <use xlink:href="#DejaVuSans-31"/>
      </g>
     </g>
    </g>
    <g id="ytick_3">
     <g id="line2d_11">
      <g>
       <use xlink:href="#m2b84c1705f" x="83.214844" y="62.798125" style="stroke: #000000; stroke-width: 0.8"/>
      </g>
     </g>
     <g id="text_12">
      <!-- 2 -->
      <g transform="translate(69.852344 66.597344) scale(0.1 -0.1)">
       <use xlink:href="#DejaVuSans-32"/>
      </g>
     </g>
    </g>
    <g id="ytick_4">
     <g id="line2d_12">
      <g>
       <use xlink:href="#m2b84c1705f" x="83.214844" y="27.598125" style="stroke: #000000; stroke-width: 0.8"/>
      </g>
     </g>
     <g id="text_13">
      <!-- 3 -->
      <g transform="translate(69.852344 31.397344) scale(0.1 -0.1)">
       <use xlink:href="#DejaVuSans-33"/>
      </g>
     </g>
    </g>
    <g id="text_14">
     <!-- Frequency -->
     <g transform="translate(63.772656 103.587813) rotate(-90) scale(0.1 -0.1)">
      <defs>
       <path id="DejaVuSans-46" d="M 628 4666 
L 3309 4666 
L 3309 4134 
L 1259 4134 
L 1259 2759 
L 3109 2759 
L 3109 2228 
L 1259 2228 
L 1259 0 
L 628 0 
L 628 4666 
z
" transform="scale(0.015625)"/>
       <path id="DejaVuSans-65" d="M 3597 1894 
L 3597 1613 
L 953 1613 
Q 991 1019 1311 708 
Q 1631 397 2203 397 
Q 2534 397 2845 478 
Q 3156 559 3463 722 
L 3463 178 
Q 3153 47 2828 -22 
Q 2503 -91 2169 -91 
Q 1331 -91 842 396 
Q 353 884 353 1716 
Q 353 2575 817 3079 
Q 1281 3584 2069 3584 
Q 2775 3584 3186 3129 
Q 3597 2675 3597 1894 
z
M 3022 2063 
Q 3016 2534 2758 2815 
Q 2500 3097 2075 3097 
Q 1594 3097 1305 2825 
Q 1016 2553 972 2059 
L 3022 2063 
z
" transform="scale(0.015625)"/>
       <path id="DejaVuSans-71" d="M 947 1747 
Q 947 1113 1208 752 
Q 1469 391 1925 391 
Q 2381 391 2643 752 
Q 2906 1113 2906 1747 
Q 2906 2381 2643 2742 
Q 2381 3103 1925 3103 
Q 1469 3103 1208 2742 
Q 947 2381 947 1747 
z
M 2906 525 
Q 2725 213 2448 61 
Q 2172 -91 1784 -91 
Q 1150 -91 751 415 
Q 353 922 353 1747 
Q 353 2572 751 3078 
Q 1150 3584 1784 3584 
Q 2172 3584 2448 3432 
Q 2725 3281 2906 2969 
L 2906 3500 
L 3481 3500 
L 3481 -1331 
L 2906 -1331 
L 2906 525 
z
" transform="scale(0.015625)"/>
       <path id="DejaVuSans-6e" d="M 3513 2113 
L 3513 0 
L 2938 0 
L 2938 2094 
Q 2938 2591 2744 2837 
Q 2550 3084 2163 3084 
Q 1697 3084 1428 2787 
Q 1159 2491 1159 1978 
L 1159 0 
L 581 0 
L 581 3500 
L 1159 3500 
L 1159 2956 
Q 1366 3272 1645 3428 
Q 1925 3584 2291 3584 
Q 2894 3584 3203 3211 
Q 3513 2838 3513 2113 
z
" transform="scale(0.015625)"/>
       <path id="DejaVuSans-63" d="M 3122 3366 
L 3122 2828 
Q 2878 2963 2633 3030 
Q 2388 3097 2138 3097 
Q 1578 3097 1268 2742 
Q 959 2388 959 1747 
Q 959 1106 1268 751 
Q 1578 397 2138 397 
Q 2388 397 2633 464 
Q 2878 531 3122 666 
L 3122 134 
Q 2881 22 2623 -34 
Q 2366 -91 2075 -91 
Q 1284 -91 818 406 
Q 353 903 353 1747 
Q 353 2603 823 3093 
Q 1294 3584 2113 3584 
Q 2378 3584 2631 3529 
Q 2884 3475 3122 3366 
z
" transform="scale(0.015625)"/>
       <path id="DejaVuSans-79" d="M 2059 -325 
Q 1816 -950 1584 -1140 
Q 1353 -1331 966 -1331 
L 506 -1331 
L 506 -850 
L 844 -850 
Q 1081 -850 1212 -737 
Q 1344 -625 1503 -206 
L 1606 56 
L 191 3500 
L 800 3500 
L 1894 763 
L 2988 3500 
L 3597 3500 
L 2059 -325 
z
" transform="scale(0.015625)"/>
      </defs>
      <use xlink:href="#DejaVuSans-46"/>
      <use xlink:href="#DejaVuSans-72" x="50.269531"/>
      <use xlink:href="#DejaVuSans-65" x="89.132812"/>
      <use xlink:href="#DejaVuSans-71" x="150.65625"/>
      <use xlink:href="#DejaVuSans-75" x="214.132812"/>
      <use xlink:href="#DejaVuSans-65" x="277.511719"/>
      <use xlink:href="#DejaVuSans-6e" x="339.035156"/>
      <use xlink:href="#DejaVuSans-63" x="402.414062"/>
      <use xlink:href="#DejaVuSans-79" x="457.394531"/>
     </g>
    </g>
   </g>
   <g id="patch_33">
    <path d="M 83.214844 133.198125 
L 83.214844 22.318125 
" style="fill: none; stroke: #000000; stroke-width: 0.8; stroke-linejoin: miter; stroke-linecap: square"/>
   </g>
   <g id="patch_34">
    <path d="M 260.760298 133.198125 
L 260.760298 22.318125 
" style="fill: none; stroke: #000000; stroke-width: 0.8; stroke-linejoin: miter; stroke-linecap: square"/>
   </g>
   <g id="patch_35">
    <path d="M 83.214844 133.198125 
L 260.760298 133.198125 
" style="fill: none; stroke: #000000; stroke-width: 0.8; stroke-linejoin: miter; stroke-linecap: square"/>
   </g>
   <g id="patch_36">
    <path d="M 83.214844 22.318125 
L 260.760298 22.318125 
" style="fill: none; stroke: #000000; stroke-width: 0.8; stroke-linejoin: miter; stroke-linecap: square"/>
   </g>
   <g id="text_15">
    <!-- not-infected -->
    <g transform="translate(135.571321 16.318125) scale(0.12 -0.12)">
     <defs>
      <path id="DejaVuSans-74" d="M 1172 4494 
L 1172 3500 
L 2356 3500 
L 2356 3053 
L 1172 3053 
L 1172 1153 
Q 1172 725 1289 603 
Q 1406 481 1766 481 
L 2356 481 
L 2356 0 
L 1766 0 
Q 1100 0 847 248 
Q 594 497 594 1153 
L 594 3053 
L 172 3053 
L 172 3500 
L 594 3500 
L 594 4494 
L 1172 4494 
z
" transform="scale(0.015625)"/>
      <path id="DejaVuSans-2d" d="M 313 2009 
L 1997 2009 
L 1997 1497 
L 313 1497 
L 313 2009 
z
" transform="scale(0.015625)"/>
      <path id="DejaVuSans-69" d="M 603 3500 
L 1178 3500 
L 1178 0 
L 603 0 
L 603 3500 
z
M 603 4863 
L 1178 4863 
L 1178 4134 
L 603 4134 
L 603 4863 
z
" transform="scale(0.015625)"/>
      <path id="DejaVuSans-66" d="M 2375 4863 
L 2375 4384 
L 1825 4384 
Q 1516 4384 1395 4259 
Q 1275 4134 1275 3809 
L 1275 3500 
L 2222 3500 
L 2222 3053 
L 1275 3053 
L 1275 0 
L 697 0 
L 697 3053 
L 147 3053 
L 147 3500 
L 697 3500 
L 697 3744 
Q 697 4328 969 4595 
Q 1241 4863 1831 4863 
L 2375 4863 
z
" transform="scale(0.015625)"/>
      <path id="DejaVuSans-64" d="M 2906 2969 
L 2906 4863 
L 3481 4863 
L 3481 0 
L 2906 0 
L 2906 525 
Q 2725 213 2448 61 
Q 2172 -91 1784 -91 
Q 1150 -91 751 415 
Q 353 922 353 1747 
Q 353 2572 751 3078 
Q 1150 3584 1784 3584 
Q 2172 3584 2448 3432 
Q 2725 3281 2906 2969 
z
M 947 1747 
Q 947 1113 1208 752 
Q 1469 391 1925 391 
Q 2381 391 2643 752 
Q 2906 1113 2906 1747 
Q 2906 2381 2643 2742 
Q 2381 3103 1925 3103 
Q 1469 3103 1208 2742 
Q 947 2381 947 1747 
z
" transform="scale(0.015625)"/>
     </defs>
     <use xlink:href="#DejaVuSans-6e"/>
     <use xlink:href="#DejaVuSans-6f" x="63.378906"/>
     <use xlink:href="#DejaVuSans-74" x="124.560547"/>
     <use xlink:href="#DejaVuSans-2d" x="163.769531"/>
     <use xlink:href="#DejaVuSans-69" x="199.853516"/>
     <use xlink:href="#DejaVuSans-6e" x="227.636719"/>
     <use xlink:href="#DejaVuSans-66" x="291.015625"/>
     <use xlink:href="#DejaVuSans-65" x="326.220703"/>
     <use xlink:href="#DejaVuSans-63" x="387.744141"/>
     <use xlink:href="#DejaVuSans-74" x="442.724609"/>
     <use xlink:href="#DejaVuSans-65" x="481.933594"/>
     <use xlink:href="#DejaVuSans-64" x="543.457031"/>
    </g>
   </g>
  </g>
  <g id="axes_2">
   <g id="patch_37">
    <path d="M 296.269389 133.198125 
L 473.814844 133.198125 
L 473.814844 22.318125 
L 296.269389 22.318125 
z
" style="fill: #ffffff"/>
   </g>
   <g id="patch_38">
    <path d="M 304.339637 133.198125 
L 309.719802 133.198125 
L 309.719802 48.718125 
L 304.339637 48.718125 
z
" clip-path="url(#p001355c13b)" style="fill: #ff0000; fill-opacity: 0.4"/>
   </g>
   <g id="patch_39">
    <path d="M 309.719802 133.198125 
L 315.099968 133.198125 
L 315.099968 69.838125 
L 309.719802 69.838125 
z
" clip-path="url(#p001355c13b)" style="fill: #ff0000; fill-opacity: 0.4"/>
   </g>
   <g id="patch_40">
    <path d="M 315.099968 133.198125 
L 320.480133 133.198125 
L 320.480133 27.598125 
L 315.099968 27.598125 
z
" clip-path="url(#p001355c13b)" style="fill: #ff0000; fill-opacity: 0.4"/>
   </g>
   <g id="patch_41">
    <path d="M 320.480133 133.198125 
L 325.860298 133.198125 
L 325.860298 69.838125 
L 320.480133 69.838125 
z
" clip-path="url(#p001355c13b)" style="fill: #ff0000; fill-opacity: 0.4"/>
   </g>
   <g id="patch_42">
    <path d="M 325.860298 133.198125 
L 331.240464 133.198125 
L 331.240464 133.198125 
L 325.860298 133.198125 
z
" clip-path="url(#p001355c13b)" style="fill: #ff0000; fill-opacity: 0.4"/>
   </g>
   <g id="patch_43">
    <path d="M 331.240464 133.198125 
L 336.620629 133.198125 
L 336.620629 27.598125 
L 331.240464 27.598125 
z
" clip-path="url(#p001355c13b)" style="fill: #ff0000; fill-opacity: 0.4"/>
   </g>
   <g id="patch_44">
    <path d="M 336.620629 133.198125 
L 342.000794 133.198125 
L 342.000794 112.078125 
L 336.620629 112.078125 
z
" clip-path="url(#p001355c13b)" style="fill: #ff0000; fill-opacity: 0.4"/>
   </g>
   <g id="patch_45">
    <path d="M 342.000794 133.198125 
L 347.380959 133.198125 
L 347.380959 112.078125 
L 342.000794 112.078125 
z
" clip-path="url(#p001355c13b)" style="fill: #ff0000; fill-opacity: 0.4"/>
   </g>
   <g id="patch_46">
    <path d="M 347.380959 133.198125 
L 352.761125 133.198125 
L 352.761125 133.198125 
L 347.380959 133.198125 
z
" clip-path="url(#p001355c13b)" style="fill: #ff0000; fill-opacity: 0.4"/>
   </g>
   <g id="patch_47">
    <path d="M 352.761125 133.198125 
L 358.14129 133.198125 
L 358.14129 133.198125 
L 352.761125 133.198125 
z
" clip-path="url(#p001355c13b)" style="fill: #ff0000; fill-opacity: 0.4"/>
   </g>
   <g id="patch_48">
    <path d="M 358.14129 133.198125 
L 363.521455 133.198125 
L 363.521455 112.078125 
L 358.14129 112.078125 
z
" clip-path="url(#p001355c13b)" style="fill: #ff0000; fill-opacity: 0.4"/>
   </g>
   <g id="patch_49">
    <path d="M 363.521455 133.198125 
L 368.901621 133.198125 
L 368.901621 112.078125 
L 363.521455 112.078125 
z
" clip-path="url(#p001355c13b)" style="fill: #ff0000; fill-opacity: 0.4"/>
   </g>
   <g id="patch_50">
    <path d="M 368.901621 133.198125 
L 374.281786 133.198125 
L 374.281786 112.078125 
L 368.901621 112.078125 
z
" clip-path="url(#p001355c13b)" style="fill: #ff0000; fill-opacity: 0.4"/>
   </g>
   <g id="patch_51">
    <path d="M 374.281786 133.198125 
L 379.661951 133.198125 
L 379.661951 133.198125 
L 374.281786 133.198125 
z
" clip-path="url(#p001355c13b)" style="fill: #ff0000; fill-opacity: 0.4"/>
   </g>
   <g id="patch_52">
    <path d="M 379.661951 133.198125 
L 385.042116 133.198125 
L 385.042116 133.198125 
L 379.661951 133.198125 
z
" clip-path="url(#p001355c13b)" style="fill: #ff0000; fill-opacity: 0.4"/>
   </g>
   <g id="patch_53">
    <path d="M 385.042116 133.198125 
L 390.422282 133.198125 
L 390.422282 112.078125 
L 385.042116 112.078125 
z
" clip-path="url(#p001355c13b)" style="fill: #ff0000; fill-opacity: 0.4"/>
   </g>
   <g id="patch_54">
    <path d="M 390.422282 133.198125 
L 395.802447 133.198125 
L 395.802447 69.838125 
L 390.422282 69.838125 
z
" clip-path="url(#p001355c13b)" style="fill: #ff0000; fill-opacity: 0.4"/>
   </g>
   <g id="patch_55">
    <path d="M 395.802447 133.198125 
L 401.182612 133.198125 
L 401.182612 90.958125 
L 395.802447 90.958125 
z
" clip-path="url(#p001355c13b)" style="fill: #ff0000; fill-opacity: 0.4"/>
   </g>
   <g id="patch_56">
    <path d="M 401.182612 133.198125 
L 406.562778 133.198125 
L 406.562778 112.078125 
L 401.182612 112.078125 
z
" clip-path="url(#p001355c13b)" style="fill: #ff0000; fill-opacity: 0.4"/>
   </g>
   <g id="patch_57">
    <path d="M 406.562778 133.198125 
L 411.942943 133.198125 
L 411.942943 133.198125 
L 406.562778 133.198125 
z
" clip-path="url(#p001355c13b)" style="fill: #ff0000; fill-opacity: 0.4"/>
   </g>
   <g id="patch_58">
    <path d="M 411.942943 133.198125 
L 417.323108 133.198125 
L 417.323108 133.198125 
L 411.942943 133.198125 
z
" clip-path="url(#p001355c13b)" style="fill: #ff0000; fill-opacity: 0.4"/>
   </g>
   <g id="patch_59">
    <path d="M 417.323108 133.198125 
L 422.703274 133.198125 
L 422.703274 133.198125 
L 417.323108 133.198125 
z
" clip-path="url(#p001355c13b)" style="fill: #ff0000; fill-opacity: 0.4"/>
   </g>
   <g id="patch_60">
    <path d="M 422.703274 133.198125 
L 428.083439 133.198125 
L 428.083439 133.198125 
L 422.703274 133.198125 
z
" clip-path="url(#p001355c13b)" style="fill: #ff0000; fill-opacity: 0.4"/>
   </g>
   <g id="patch_61">
    <path d="M 428.083439 133.198125 
L 433.463604 133.198125 
L 433.463604 133.198125 
L 428.083439 133.198125 
z
" clip-path="url(#p001355c13b)" style="fill: #ff0000; fill-opacity: 0.4"/>
   </g>
   <g id="patch_62">
    <path d="M 433.463604 133.198125 
L 438.843769 133.198125 
L 438.843769 133.198125 
L 433.463604 133.198125 
z
" clip-path="url(#p001355c13b)" style="fill: #ff0000; fill-opacity: 0.4"/>
   </g>
   <g id="patch_63">
    <path d="M 438.843769 133.198125 
L 444.223935 133.198125 
L 444.223935 133.198125 
L 438.843769 133.198125 
z
" clip-path="url(#p001355c13b)" style="fill: #ff0000; fill-opacity: 0.4"/>
   </g>
   <g id="patch_64">
    <path d="M 444.223935 133.198125 
L 449.6041 133.198125 
L 449.6041 133.198125 
L 444.223935 133.198125 
z
" clip-path="url(#p001355c13b)" style="fill: #ff0000; fill-opacity: 0.4"/>
   </g>
   <g id="patch_65">
    <path d="M 449.6041 133.198125 
L 454.984265 133.198125 
L 454.984265 133.198125 
L 449.6041 133.198125 
z
" clip-path="url(#p001355c13b)" style="fill: #ff0000; fill-opacity: 0.4"/>
   </g>
   <g id="patch_66">
    <path d="M 454.984265 133.198125 
L 460.364431 133.198125 
L 460.364431 133.198125 
L 454.984265 133.198125 
z
" clip-path="url(#p001355c13b)" style="fill: #ff0000; fill-opacity: 0.4"/>
   </g>
   <g id="patch_67">
    <path d="M 460.364431 133.198125 
L 465.744596 133.198125 
L 465.744596 112.078125 
L 460.364431 112.078125 
z
" clip-path="url(#p001355c13b)" style="fill: #ff0000; fill-opacity: 0.4"/>
   </g>
   <g id="matplotlib.axis_3">
    <g id="xtick_9">
     <g id="line2d_13">
      <g>
       <use xlink:href="#m44ad268284" x="304.337394" y="133.198125" style="stroke: #000000; stroke-width: 0.8"/>
      </g>
     </g>
     <g id="text_16">
      <!-- 0 -->
      <g transform="translate(301.156144 147.796563) scale(0.1 -0.1)">
       <use xlink:href="#DejaVuSans-30"/>
      </g>
     </g>
    </g>
    <g id="xtick_10">
     <g id="line2d_14">
      <g>
       <use xlink:href="#m44ad268284" x="361.161338" y="133.198125" style="stroke: #000000; stroke-width: 0.8"/>
      </g>
     </g>
     <g id="text_17">
      <!-- 25 -->
      <g transform="translate(354.798838 147.796563) scale(0.1 -0.1)">
       <use xlink:href="#DejaVuSans-32"/>
       <use xlink:href="#DejaVuSans-35" x="63.623047"/>
      </g>
     </g>
    </g>
    <g id="xtick_11">
     <g id="line2d_15">
      <g>
       <use xlink:href="#m44ad268284" x="417.985281" y="133.198125" style="stroke: #000000; stroke-width: 0.8"/>
      </g>
     </g>
     <g id="text_18">
      <!-- 50 -->
      <g transform="translate(411.622781 147.796563) scale(0.1 -0.1)">
       <use xlink:href="#DejaVuSans-35"/>
       <use xlink:href="#DejaVuSans-30" x="63.623047"/>
      </g>
     </g>
    </g>
    <g id="xtick_12">
     <g id="line2d_16">
      <g>
       <use xlink:href="#m44ad268284" x="465.717394" y="133.198125" style="stroke: #000000; stroke-width: 0.8"/>
      </g>
     </g>
     <g id="text_19">
      <!-- 71 -->
      <g transform="translate(459.354894 147.796563) scale(0.1 -0.1)">
       <use xlink:href="#DejaVuSans-37"/>
       <use xlink:href="#DejaVuSans-31" x="63.623047"/>
      </g>
     </g>
    </g>
    <g id="text_20">
     <!-- 1 Day -->
     <g transform="translate(370.398366 161.474688) scale(0.1 -0.1)">
      <defs>
       <path id="DejaVuSans-44" d="M 1259 4147 
L 1259 519 
L 2022 519 
Q 2988 519 3436 956 
Q 3884 1394 3884 2338 
Q 3884 3275 3436 3711 
Q 2988 4147 2022 4147 
L 1259 4147 
z
M 628 4666 
L 1925 4666 
Q 3281 4666 3915 4102 
Q 4550 3538 4550 2338 
Q 4550 1131 3912 565 
Q 3275 0 1925 0 
L 628 0 
L 628 4666 
z
" transform="scale(0.015625)"/>
       <path id="DejaVuSans-61" d="M 2194 1759 
Q 1497 1759 1228 1600 
Q 959 1441 959 1056 
Q 959 750 1161 570 
Q 1363 391 1709 391 
Q 2188 391 2477 730 
Q 2766 1069 2766 1631 
L 2766 1759 
L 2194 1759 
z
M 3341 1997 
L 3341 0 
L 2766 0 
L 2766 531 
Q 2569 213 2275 61 
Q 1981 -91 1556 -91 
Q 1019 -91 701 211 
Q 384 513 384 1019 
Q 384 1609 779 1909 
Q 1175 2209 1959 2209 
L 2766 2209 
L 2766 2266 
Q 2766 2663 2505 2880 
Q 2244 3097 1772 3097 
Q 1472 3097 1187 3025 
Q 903 2953 641 2809 
L 641 3341 
Q 956 3463 1253 3523 
Q 1550 3584 1831 3584 
Q 2591 3584 2966 3190 
Q 3341 2797 3341 1997 
z
" transform="scale(0.015625)"/>
      </defs>
      <use xlink:href="#DejaVuSans-31"/>
      <use xlink:href="#DejaVuSans-20" x="63.623047"/>
      <use xlink:href="#DejaVuSans-44" x="95.410156"/>
      <use xlink:href="#DejaVuSans-61" x="172.412109"/>
      <use xlink:href="#DejaVuSans-79" x="233.691406"/>
     </g>
    </g>
   </g>
   <g id="matplotlib.axis_4">
    <g id="ytick_5">
     <g id="line2d_17">
      <g>
       <use xlink:href="#m2b84c1705f" x="296.269389" y="133.198125" style="stroke: #000000; stroke-width: 0.8"/>
      </g>
     </g>
     <g id="text_21">
      <!-- 0 -->
      <g transform="translate(282.906889 136.997344) scale(0.1 -0.1)">
       <use xlink:href="#DejaVuSans-30"/>
      </g>
     </g>
    </g>
    <g id="ytick_6">
     <g id="line2d_18">
      <g>
       <use xlink:href="#m2b84c1705f" x="296.269389" y="90.958125" style="stroke: #000000; stroke-width: 0.8"/>
      </g>
     </g>
     <g id="text_22">
      <!-- 2 -->
      <g transform="translate(282.906889 94.757344) scale(0.1 -0.1)">
       <use xlink:href="#DejaVuSans-32"/>
      </g>
     </g>
    </g>
    <g id="ytick_7">
     <g id="line2d_19">
      <g>
       <use xlink:href="#m2b84c1705f" x="296.269389" y="48.718125" style="stroke: #000000; stroke-width: 0.8"/>
      </g>
     </g>
     <g id="text_23">
      <!-- 4 -->
      <g transform="translate(282.906889 52.517344) scale(0.1 -0.1)">
       <use xlink:href="#DejaVuSans-34"/>
      </g>
     </g>
    </g>
   </g>
   <g id="patch_68">
    <path d="M 296.269389 133.198125 
L 296.269389 22.318125 
" style="fill: none; stroke: #000000; stroke-width: 0.8; stroke-linejoin: miter; stroke-linecap: square"/>
   </g>
   <g id="patch_69">
    <path d="M 473.814844 133.198125 
L 473.814844 22.318125 
" style="fill: none; stroke: #000000; stroke-width: 0.8; stroke-linejoin: miter; stroke-linecap: square"/>
   </g>
   <g id="patch_70">
    <path d="M 296.269389 133.198125 
L 473.814844 133.198125 
" style="fill: none; stroke: #000000; stroke-width: 0.8; stroke-linejoin: miter; stroke-linecap: square"/>
   </g>
   <g id="patch_71">
    <path d="M 296.269389 22.318125 
L 473.814844 22.318125 
" style="fill: none; stroke: #000000; stroke-width: 0.8; stroke-linejoin: miter; stroke-linecap: square"/>
   </g>
   <g id="text_24">
    <!-- infected -->
    <g transform="translate(360.616491 16.318125) scale(0.12 -0.12)">
     <use xlink:href="#DejaVuSans-69"/>
     <use xlink:href="#DejaVuSans-6e" x="27.783203"/>
     <use xlink:href="#DejaVuSans-66" x="91.162109"/>
     <use xlink:href="#DejaVuSans-65" x="126.367188"/>
     <use xlink:href="#DejaVuSans-63" x="187.890625"/>
     <use xlink:href="#DejaVuSans-74" x="242.871094"/>
     <use xlink:href="#DejaVuSans-65" x="282.080078"/>
     <use xlink:href="#DejaVuSans-64" x="343.603516"/>
    </g>
   </g>
  </g>
  <g id="text_25">
   <!-- [duration] -->
   <g transform="translate(242.285156 17.03625) scale(0.12 -0.12)">
    <defs>
     <path id="DejaVuSans-5b" d="M 550 4863 
L 1875 4863 
L 1875 4416 
L 1125 4416 
L 1125 -397 
L 1875 -397 
L 1875 -844 
L 550 -844 
L 550 4863 
z
" transform="scale(0.015625)"/>
     <path id="DejaVuSans-5d" d="M 1947 4863 
L 1947 -844 
L 622 -844 
L 622 -397 
L 1369 -397 
L 1369 4416 
L 622 4416 
L 622 4863 
L 1947 4863 
z
" transform="scale(0.015625)"/>
    </defs>
    <use xlink:href="#DejaVuSans-5b"/>
    <use xlink:href="#DejaVuSans-64" x="39.013672"/>
    <use xlink:href="#DejaVuSans-75" x="102.490234"/>
    <use xlink:href="#DejaVuSans-72" x="165.869141"/>
    <use xlink:href="#DejaVuSans-61" x="206.982422"/>
    <use xlink:href="#DejaVuSans-74" x="268.261719"/>
    <use xlink:href="#DejaVuSans-69" x="307.470703"/>
    <use xlink:href="#DejaVuSans-6f" x="335.253906"/>
    <use xlink:href="#DejaVuSans-6e" x="396.435547"/>
    <use xlink:href="#DejaVuSans-5d" x="459.814453"/>
   </g>
  </g>
  <g id="text_26">
   <!-- Capture duration distribution for each class. Note that the x-scale is 1 hour for _NICs_ and 1 day for _ICs_. -->
   <g transform="translate(7.2 177.838125) scale(0.1 -0.1)">
    <defs>
     <path id="DejaVuSans-43" d="M 4122 4306 
L 4122 3641 
Q 3803 3938 3442 4084 
Q 3081 4231 2675 4231 
Q 1875 4231 1450 3742 
Q 1025 3253 1025 2328 
Q 1025 1406 1450 917 
Q 1875 428 2675 428 
Q 3081 428 3442 575 
Q 3803 722 4122 1019 
L 4122 359 
Q 3791 134 3420 21 
Q 3050 -91 2638 -91 
Q 1578 -91 968 557 
Q 359 1206 359 2328 
Q 359 3453 968 4101 
Q 1578 4750 2638 4750 
Q 3056 4750 3426 4639 
Q 3797 4528 4122 4306 
z
" transform="scale(0.015625)"/>
     <path id="DejaVuSans-70" d="M 1159 525 
L 1159 -1331 
L 581 -1331 
L 581 3500 
L 1159 3500 
L 1159 2969 
Q 1341 3281 1617 3432 
Q 1894 3584 2278 3584 
Q 2916 3584 3314 3078 
Q 3713 2572 3713 1747 
Q 3713 922 3314 415 
Q 2916 -91 2278 -91 
Q 1894 -91 1617 61 
Q 1341 213 1159 525 
z
M 3116 1747 
Q 3116 2381 2855 2742 
Q 2594 3103 2138 3103 
Q 1681 3103 1420 2742 
Q 1159 2381 1159 1747 
Q 1159 1113 1420 752 
Q 1681 391 2138 391 
Q 2594 391 2855 752 
Q 3116 1113 3116 1747 
z
" transform="scale(0.015625)"/>
     <path id="DejaVuSans-73" d="M 2834 3397 
L 2834 2853 
Q 2591 2978 2328 3040 
Q 2066 3103 1784 3103 
Q 1356 3103 1142 2972 
Q 928 2841 928 2578 
Q 928 2378 1081 2264 
Q 1234 2150 1697 2047 
L 1894 2003 
Q 2506 1872 2764 1633 
Q 3022 1394 3022 966 
Q 3022 478 2636 193 
Q 2250 -91 1575 -91 
Q 1294 -91 989 -36 
Q 684 19 347 128 
L 347 722 
Q 666 556 975 473 
Q 1284 391 1588 391 
Q 1994 391 2212 530 
Q 2431 669 2431 922 
Q 2431 1156 2273 1281 
Q 2116 1406 1581 1522 
L 1381 1569 
Q 847 1681 609 1914 
Q 372 2147 372 2553 
Q 372 3047 722 3315 
Q 1072 3584 1716 3584 
Q 2034 3584 2315 3537 
Q 2597 3491 2834 3397 
z
" transform="scale(0.015625)"/>
     <path id="DejaVuSans-62" d="M 3116 1747 
Q 3116 2381 2855 2742 
Q 2594 3103 2138 3103 
Q 1681 3103 1420 2742 
Q 1159 2381 1159 1747 
Q 1159 1113 1420 752 
Q 1681 391 2138 391 
Q 2594 391 2855 752 
Q 3116 1113 3116 1747 
z
M 1159 2969 
Q 1341 3281 1617 3432 
Q 1894 3584 2278 3584 
Q 2916 3584 3314 3078 
Q 3713 2572 3713 1747 
Q 3713 922 3314 415 
Q 2916 -91 2278 -91 
Q 1894 -91 1617 61 
Q 1341 213 1159 525 
L 1159 0 
L 581 0 
L 581 4863 
L 1159 4863 
L 1159 2969 
z
" transform="scale(0.015625)"/>
     <path id="DejaVuSans-68" d="M 3513 2113 
L 3513 0 
L 2938 0 
L 2938 2094 
Q 2938 2591 2744 2837 
Q 2550 3084 2163 3084 
Q 1697 3084 1428 2787 
Q 1159 2491 1159 1978 
L 1159 0 
L 581 0 
L 581 4863 
L 1159 4863 
L 1159 2956 
Q 1366 3272 1645 3428 
Q 1925 3584 2291 3584 
Q 2894 3584 3203 3211 
Q 3513 2838 3513 2113 
z
" transform="scale(0.015625)"/>
     <path id="DejaVuSans-6c" d="M 603 4863 
L 1178 4863 
L 1178 0 
L 603 0 
L 603 4863 
z
" transform="scale(0.015625)"/>
     <path id="DejaVuSans-2e" d="M 684 794 
L 1344 794 
L 1344 0 
L 684 0 
L 684 794 
z
" transform="scale(0.015625)"/>
     <path id="DejaVuSans-4e" d="M 628 4666 
L 1478 4666 
L 3547 763 
L 3547 4666 
L 4159 4666 
L 4159 0 
L 3309 0 
L 1241 3903 
L 1241 0 
L 628 0 
L 628 4666 
z
" transform="scale(0.015625)"/>
     <path id="DejaVuSans-78" d="M 3513 3500 
L 2247 1797 
L 3578 0 
L 2900 0 
L 1881 1375 
L 863 0 
L 184 0 
L 1544 1831 
L 300 3500 
L 978 3500 
L 1906 2253 
L 2834 3500 
L 3513 3500 
z
" transform="scale(0.015625)"/>
     <path id="DejaVuSans-5f" d="M 3263 -1063 
L 3263 -1509 
L -63 -1509 
L -63 -1063 
L 3263 -1063 
z
" transform="scale(0.015625)"/>
     <path id="DejaVuSans-49" d="M 628 4666 
L 1259 4666 
L 1259 0 
L 628 0 
L 628 4666 
z
" transform="scale(0.015625)"/>
    </defs>
    <use xlink:href="#DejaVuSans-43"/>
    <use xlink:href="#DejaVuSans-61" x="69.824219"/>
    <use xlink:href="#DejaVuSans-70" x="131.103516"/>
    <use xlink:href="#DejaVuSans-74" x="194.580078"/>
    <use xlink:href="#DejaVuSans-75" x="233.789062"/>
    <use xlink:href="#DejaVuSans-72" x="297.167969"/>
    <use xlink:href="#DejaVuSans-65" x="336.03125"/>
    <use xlink:href="#DejaVuSans-20" x="397.554688"/>
    <use xlink:href="#DejaVuSans-64" x="429.341797"/>
    <use xlink:href="#DejaVuSans-75" x="492.818359"/>
    <use xlink:href="#DejaVuSans-72" x="556.197266"/>
    <use xlink:href="#DejaVuSans-61" x="597.310547"/>
    <use xlink:href="#DejaVuSans-74" x="658.589844"/>
    <use xlink:href="#DejaVuSans-69" x="697.798828"/>
    <use xlink:href="#DejaVuSans-6f" x="725.582031"/>
    <use xlink:href="#DejaVuSans-6e" x="786.763672"/>
    <use xlink:href="#DejaVuSans-20" x="850.142578"/>
    <use xlink:href="#DejaVuSans-64" x="881.929688"/>
    <use xlink:href="#DejaVuSans-69" x="945.40625"/>
    <use xlink:href="#DejaVuSans-73" x="973.189453"/>
    <use xlink:href="#DejaVuSans-74" x="1025.289062"/>
    <use xlink:href="#DejaVuSans-72" x="1064.498047"/>
    <use xlink:href="#DejaVuSans-69" x="1105.611328"/>
    <use xlink:href="#DejaVuSans-62" x="1133.394531"/>
    <use xlink:href="#DejaVuSans-75" x="1196.871094"/>
    <use xlink:href="#DejaVuSans-74" x="1260.25"/>
    <use xlink:href="#DejaVuSans-69" x="1299.458984"/>
    <use xlink:href="#DejaVuSans-6f" x="1327.242188"/>
    <use xlink:href="#DejaVuSans-6e" x="1388.423828"/>
    <use xlink:href="#DejaVuSans-20" x="1451.802734"/>
    <use xlink:href="#DejaVuSans-66" x="1483.589844"/>
    <use xlink:href="#DejaVuSans-6f" x="1518.794922"/>
    <use xlink:href="#DejaVuSans-72" x="1579.976562"/>
    <use xlink:href="#DejaVuSans-20" x="1621.089844"/>
    <use xlink:href="#DejaVuSans-65" x="1652.876953"/>
    <use xlink:href="#DejaVuSans-61" x="1714.400391"/>
    <use xlink:href="#DejaVuSans-63" x="1775.679688"/>
    <use xlink:href="#DejaVuSans-68" x="1830.660156"/>
    <use xlink:href="#DejaVuSans-20" x="1894.039062"/>
    <use xlink:href="#DejaVuSans-63" x="1925.826172"/>
    <use xlink:href="#DejaVuSans-6c" x="1980.806641"/>
    <use xlink:href="#DejaVuSans-61" x="2008.589844"/>
    <use xlink:href="#DejaVuSans-73" x="2069.869141"/>
    <use xlink:href="#DejaVuSans-73" x="2121.96875"/>
    <use xlink:href="#DejaVuSans-2e" x="2174.068359"/>
    <use xlink:href="#DejaVuSans-20" x="2205.855469"/>
    <use xlink:href="#DejaVuSans-4e" x="2237.642578"/>
    <use xlink:href="#DejaVuSans-6f" x="2312.447266"/>
    <use xlink:href="#DejaVuSans-74" x="2373.628906"/>
    <use xlink:href="#DejaVuSans-65" x="2412.837891"/>
    <use xlink:href="#DejaVuSans-20" x="2474.361328"/>
    <use xlink:href="#DejaVuSans-74" x="2506.148438"/>
    <use xlink:href="#DejaVuSans-68" x="2545.357422"/>
    <use xlink:href="#DejaVuSans-61" x="2608.736328"/>
    <use xlink:href="#DejaVuSans-74" x="2670.015625"/>
    <use xlink:href="#DejaVuSans-20" x="2709.224609"/>
    <use xlink:href="#DejaVuSans-74" x="2741.011719"/>
    <use xlink:href="#DejaVuSans-68" x="2780.220703"/>
    <use xlink:href="#DejaVuSans-65" x="2843.599609"/>
    <use xlink:href="#DejaVuSans-20" x="2905.123047"/>
    <use xlink:href="#DejaVuSans-78" x="2936.910156"/>
    <use xlink:href="#DejaVuSans-2d" x="2996.089844"/>
    <use xlink:href="#DejaVuSans-73" x="3032.173828"/>
    <use xlink:href="#DejaVuSans-63" x="3084.273438"/>
    <use xlink:href="#DejaVuSans-61" x="3139.253906"/>
    <use xlink:href="#DejaVuSans-6c" x="3200.533203"/>
    <use xlink:href="#DejaVuSans-65" x="3228.316406"/>
    <use xlink:href="#DejaVuSans-20" x="3289.839844"/>
    <use xlink:href="#DejaVuSans-69" x="3321.626953"/>
    <use xlink:href="#DejaVuSans-73" x="3349.410156"/>
    <use xlink:href="#DejaVuSans-20" x="3401.509766"/>
    <use xlink:href="#DejaVuSans-31" x="3433.296875"/>
    <use xlink:href="#DejaVuSans-20" x="3496.919922"/>
    <use xlink:href="#DejaVuSans-68" x="3528.707031"/>
    <use xlink:href="#DejaVuSans-6f" x="3592.085938"/>
    <use xlink:href="#DejaVuSans-75" x="3653.267578"/>
    <use xlink:href="#DejaVuSans-72" x="3716.646484"/>
    <use xlink:href="#DejaVuSans-20" x="3757.759766"/>
    <use xlink:href="#DejaVuSans-66" x="3789.546875"/>
    <use xlink:href="#DejaVuSans-6f" x="3824.751953"/>
    <use xlink:href="#DejaVuSans-72" x="3885.933594"/>
    <use xlink:href="#DejaVuSans-20" x="3927.046875"/>
    <use xlink:href="#DejaVuSans-5f" x="3958.833984"/>
    <use xlink:href="#DejaVuSans-4e" x="4008.833984"/>
    <use xlink:href="#DejaVuSans-49" x="4083.638672"/>
    <use xlink:href="#DejaVuSans-43" x="4113.130859"/>
    <use xlink:href="#DejaVuSans-73" x="4182.955078"/>
    <use xlink:href="#DejaVuSans-5f" x="4235.054688"/>
    <use xlink:href="#DejaVuSans-20" x="4285.054688"/>
    <use xlink:href="#DejaVuSans-61" x="4316.841797"/>
    <use xlink:href="#DejaVuSans-6e" x="4378.121094"/>
    <use xlink:href="#DejaVuSans-64" x="4441.5"/>
    <use xlink:href="#DejaVuSans-20" x="4504.976562"/>
    <use xlink:href="#DejaVuSans-31" x="4536.763672"/>
    <use xlink:href="#DejaVuSans-20" x="4600.386719"/>
    <use xlink:href="#DejaVuSans-64" x="4632.173828"/>
    <use xlink:href="#DejaVuSans-61" x="4695.650391"/>
    <use xlink:href="#DejaVuSans-79" x="4756.929688"/>
    <use xlink:href="#DejaVuSans-20" x="4816.109375"/>
    <use xlink:href="#DejaVuSans-66" x="4847.896484"/>
    <use xlink:href="#DejaVuSans-6f" x="4883.101562"/>
    <use xlink:href="#DejaVuSans-72" x="4944.283203"/>
    <use xlink:href="#DejaVuSans-20" x="4985.396484"/>
    <use xlink:href="#DejaVuSans-5f" x="5017.183594"/>
    <use xlink:href="#DejaVuSans-49" x="5067.183594"/>
    <use xlink:href="#DejaVuSans-43" x="5096.675781"/>
    <use xlink:href="#DejaVuSans-73" x="5166.5"/>
    <use xlink:href="#DejaVuSans-5f" x="5218.599609"/>
    <use xlink:href="#DejaVuSans-2e" x="5268.599609"/>
   </g>
  </g>
 </g>
 <defs>
  <clipPath id="pd8f6beda05">
   <rect x="83.214844" y="22.318125" width="177.545455" height="110.88"/>
  </clipPath>
  <clipPath id="p001355c13b">
   <rect x="296.269389" y="22.318125" width="177.545455" height="110.88"/>
  </clipPath>
 </defs>
</svg>
