<?xml version="1.0" encoding="utf-8" standalone="no"?>
<!DOCTYPE svg PUBLIC "-//W3C//DTD SVG 1.1//EN"
  "http://www.w3.org/Graphics/SVG/1.1/DTD/svg11.dtd">
<svg xmlns:xlink="http://www.w3.org/1999/xlink" width="483.803125pt" height="172.02pt" viewBox="0 0 483.803125 172.02" xmlns="http://www.w3.org/2000/svg" version="1.1">
 <metadata>
  <rdf:RDF xmlns:dc="http://purl.org/dc/elements/1.1/" xmlns:cc="http://creativecommons.org/ns#" xmlns:rdf="http://www.w3.org/1999/02/22-rdf-syntax-ns#">
   <cc:Work>
    <dc:type rdf:resource="http://purl.org/dc/dcmitype/StillImage"/>
    <dc:date>2024-06-18T10:01:43.391003</dc:date>
    <dc:format>image/svg+xml</dc:format>
    <dc:creator>
     <cc:Agent>
      <dc:title>Matplotlib v3.9.0, https://matplotlib.org/</dc:title>
     </cc:Agent>
    </dc:creator>
   </cc:Work>
  </rdf:RDF>
 </metadata>
 <defs>
  <style type="text/css">*{stroke-linejoin: round; stroke-linecap: butt}</style>
 </defs>
 <g id="figure_1">
  <g id="patch_1">
   <path d="M 0 172.02 
L 483.803125 172.02 
L 483.803125 0 
L 0 0 
z
" style="fill: #ffffff"/>
  </g>
  <g id="axes_1">
   <g id="patch_2">
    <path d="M 40.603125 132.48 
L 218.14858 132.48 
L 218.14858 21.6 
L 40.603125 21.6 
z
" style="fill: #ffffff"/>
   </g>
   <g id="patch_3">
    <path d="M 48.673373 132.48 
L 54.053538 132.48 
L 54.053538 26.88 
L 48.673373 26.88 
z
" clip-path="url(#p1e3e72458d)" style="fill: #ff0000; fill-opacity: 0.4"/>
   </g>
   <g id="patch_4">
    <path d="M 54.053538 132.48 
L 59.433704 132.48 
L 59.433704 122.422857 
L 54.053538 122.422857 
z
" clip-path="url(#p1e3e72458d)" style="fill: #ff0000; fill-opacity: 0.4"/>
   </g>
   <g id="patch_5">
    <path d="M 59.433704 132.48 
L 64.813869 132.48 
L 64.813869 117.394286 
L 59.433704 117.394286 
z
" clip-path="url(#p1e3e72458d)" style="fill: #ff0000; fill-opacity: 0.4"/>
   </g>
   <g id="patch_6">
    <path d="M 64.813869 132.48 
L 70.194034 132.48 
L 70.194034 122.422857 
L 64.813869 122.422857 
z
" clip-path="url(#p1e3e72458d)" style="fill: #ff0000; fill-opacity: 0.4"/>
   </g>
   <g id="patch_7">
    <path d="M 70.194034 132.48 
L 75.574199 132.48 
L 75.574199 132.48 
L 70.194034 132.48 
z
" clip-path="url(#p1e3e72458d)" style="fill: #ff0000; fill-opacity: 0.4"/>
   </g>
   <g id="patch_8">
    <path d="M 75.574199 132.48 
L 80.954365 132.48 
L 80.954365 132.48 
L 75.574199 132.48 
z
" clip-path="url(#p1e3e72458d)" style="fill: #ff0000; fill-opacity: 0.4"/>
   </g>
   <g id="patch_9">
    <path d="M 80.954365 132.48 
L 86.33453 132.48 
L 86.33453 132.48 
L 80.954365 132.48 
z
" clip-path="url(#p1e3e72458d)" style="fill: #ff0000; fill-opacity: 0.4"/>
   </g>
   <g id="patch_10">
    <path d="M 86.33453 132.48 
L 91.714695 132.48 
L 91.714695 132.48 
L 86.33453 132.48 
z
" clip-path="url(#p1e3e72458d)" style="fill: #ff0000; fill-opacity: 0.4"/>
   </g>
   <g id="patch_11">
    <path d="M 91.714695 132.48 
L 97.094861 132.48 
L 97.094861 127.451429 
L 91.714695 127.451429 
z
" clip-path="url(#p1e3e72458d)" style="fill: #ff0000; fill-opacity: 0.4"/>
   </g>
   <g id="patch_12">
    <path d="M 97.094861 132.48 
L 102.475026 132.48 
L 102.475026 132.48 
L 97.094861 132.48 
z
" clip-path="url(#p1e3e72458d)" style="fill: #ff0000; fill-opacity: 0.4"/>
   </g>
   <g id="patch_13">
    <path d="M 102.475026 132.48 
L 107.855191 132.48 
L 107.855191 132.48 
L 102.475026 132.48 
z
" clip-path="url(#p1e3e72458d)" style="fill: #ff0000; fill-opacity: 0.4"/>
   </g>
   <g id="patch_14">
    <path d="M 107.855191 132.48 
L 113.235356 132.48 
L 113.235356 132.48 
L 107.855191 132.48 
z
" clip-path="url(#p1e3e72458d)" style="fill: #ff0000; fill-opacity: 0.4"/>
   </g>
   <g id="patch_15">
    <path d="M 113.235356 132.48 
L 118.615522 132.48 
L 118.615522 132.48 
L 113.235356 132.48 
z
" clip-path="url(#p1e3e72458d)" style="fill: #ff0000; fill-opacity: 0.4"/>
   </g>
   <g id="patch_16">
    <path d="M 118.615522 132.48 
L 123.995687 132.48 
L 123.995687 127.451429 
L 118.615522 127.451429 
z
" clip-path="url(#p1e3e72458d)" style="fill: #ff0000; fill-opacity: 0.4"/>
   </g>
   <g id="patch_17">
    <path d="M 123.995687 132.48 
L 129.375852 132.48 
L 129.375852 132.48 
L 123.995687 132.48 
z
" clip-path="url(#p1e3e72458d)" style="fill: #ff0000; fill-opacity: 0.4"/>
   </g>
   <g id="patch_18">
    <path d="M 129.375852 132.48 
L 134.756018 132.48 
L 134.756018 132.48 
L 129.375852 132.48 
z
" clip-path="url(#p1e3e72458d)" style="fill: #ff0000; fill-opacity: 0.4"/>
   </g>
   <g id="patch_19">
    <path d="M 134.756018 132.48 
L 140.136183 132.48 
L 140.136183 132.48 
L 134.756018 132.48 
z
" clip-path="url(#p1e3e72458d)" style="fill: #ff0000; fill-opacity: 0.4"/>
   </g>
   <g id="patch_20">
    <path d="M 140.136183 132.48 
L 145.516348 132.48 
L 145.516348 132.48 
L 140.136183 132.48 
z
" clip-path="url(#p1e3e72458d)" style="fill: #ff0000; fill-opacity: 0.4"/>
   </g>
   <g id="patch_21">
    <path d="M 145.516348 132.48 
L 150.896513 132.48 
L 150.896513 132.48 
L 145.516348 132.48 
z
" clip-path="url(#p1e3e72458d)" style="fill: #ff0000; fill-opacity: 0.4"/>
   </g>
   <g id="patch_22">
    <path d="M 150.896513 132.48 
L 156.276679 132.48 
L 156.276679 132.48 
L 150.896513 132.48 
z
" clip-path="url(#p1e3e72458d)" style="fill: #ff0000; fill-opacity: 0.4"/>
   </g>
   <g id="patch_23">
    <path d="M 156.276679 132.48 
L 161.656844 132.48 
L 161.656844 127.451429 
L 156.276679 127.451429 
z
" clip-path="url(#p1e3e72458d)" style="fill: #ff0000; fill-opacity: 0.4"/>
   </g>
   <g id="patch_24">
    <path d="M 161.656844 132.48 
L 167.037009 132.48 
L 167.037009 132.48 
L 161.656844 132.48 
z
" clip-path="url(#p1e3e72458d)" style="fill: #ff0000; fill-opacity: 0.4"/>
   </g>
   <g id="patch_25">
    <path d="M 167.037009 132.48 
L 172.417175 132.48 
L 172.417175 127.451429 
L 167.037009 127.451429 
z
" clip-path="url(#p1e3e72458d)" style="fill: #ff0000; fill-opacity: 0.4"/>
   </g>
   <g id="patch_26">
    <path d="M 172.417175 132.48 
L 177.79734 132.48 
L 177.79734 132.48 
L 172.417175 132.48 
z
" clip-path="url(#p1e3e72458d)" style="fill: #ff0000; fill-opacity: 0.4"/>
   </g>
   <g id="patch_27">
    <path d="M 177.79734 132.48 
L 183.177505 132.48 
L 183.177505 132.48 
L 177.79734 132.48 
z
" clip-path="url(#p1e3e72458d)" style="fill: #ff0000; fill-opacity: 0.4"/>
   </g>
   <g id="patch_28">
    <path d="M 183.177505 132.48 
L 188.55767 132.48 
L 188.55767 132.48 
L 183.177505 132.48 
z
" clip-path="url(#p1e3e72458d)" style="fill: #ff0000; fill-opacity: 0.4"/>
   </g>
   <g id="patch_29">
    <path d="M 188.55767 132.48 
L 193.937836 132.48 
L 193.937836 132.48 
L 188.55767 132.48 
z
" clip-path="url(#p1e3e72458d)" style="fill: #ff0000; fill-opacity: 0.4"/>
   </g>
   <g id="patch_30">
    <path d="M 193.937836 132.48 
L 199.318001 132.48 
L 199.318001 132.48 
L 193.937836 132.48 
z
" clip-path="url(#p1e3e72458d)" style="fill: #ff0000; fill-opacity: 0.4"/>
   </g>
   <g id="patch_31">
    <path d="M 199.318001 132.48 
L 204.698166 132.48 
L 204.698166 132.48 
L 199.318001 132.48 
z
" clip-path="url(#p1e3e72458d)" style="fill: #ff0000; fill-opacity: 0.4"/>
   </g>
   <g id="patch_32">
    <path d="M 204.698166 132.48 
L 210.078332 132.48 
L 210.078332 127.451429 
L 204.698166 127.451429 
z
" clip-path="url(#p1e3e72458d)" style="fill: #ff0000; fill-opacity: 0.4"/>
   </g>
   <g id="patch_33">
    <path d="M 53.623019 132.48 
L 58.766674 132.48 
L 58.766674 112.365714 
L 53.623019 112.365714 
z
" clip-path="url(#p1e3e72458d)" style="fill: #0000ff; fill-opacity: 0.4"/>
   </g>
   <g id="patch_34">
    <path d="M 58.766674 132.48 
L 63.91033 132.48 
L 63.91033 127.451429 
L 58.766674 127.451429 
z
" clip-path="url(#p1e3e72458d)" style="fill: #0000ff; fill-opacity: 0.4"/>
   </g>
   <g id="patch_35">
    <path d="M 63.91033 132.48 
L 69.053985 132.48 
L 69.053985 127.451429 
L 63.91033 127.451429 
z
" clip-path="url(#p1e3e72458d)" style="fill: #0000ff; fill-opacity: 0.4"/>
   </g>
   <g id="patch_36">
    <path d="M 69.053985 132.48 
L 74.19764 132.48 
L 74.19764 122.422857 
L 69.053985 122.422857 
z
" clip-path="url(#p1e3e72458d)" style="fill: #0000ff; fill-opacity: 0.4"/>
   </g>
   <g id="patch_37">
    <path d="M 74.19764 132.48 
L 79.341295 132.48 
L 79.341295 127.451429 
L 74.19764 127.451429 
z
" clip-path="url(#p1e3e72458d)" style="fill: #0000ff; fill-opacity: 0.4"/>
   </g>
   <g id="patch_38">
    <path d="M 79.341295 132.48 
L 84.48495 132.48 
L 84.48495 127.451429 
L 79.341295 127.451429 
z
" clip-path="url(#p1e3e72458d)" style="fill: #0000ff; fill-opacity: 0.4"/>
   </g>
   <g id="patch_39">
    <path d="M 84.48495 132.48 
L 89.628605 132.48 
L 89.628605 122.422857 
L 84.48495 122.422857 
z
" clip-path="url(#p1e3e72458d)" style="fill: #0000ff; fill-opacity: 0.4"/>
   </g>
   <g id="patch_40">
    <path d="M 89.628605 132.48 
L 94.77226 132.48 
L 94.77226 132.48 
L 89.628605 132.48 
z
" clip-path="url(#p1e3e72458d)" style="fill: #0000ff; fill-opacity: 0.4"/>
   </g>
   <g id="patch_41">
    <path d="M 94.77226 132.48 
L 99.915916 132.48 
L 99.915916 122.422857 
L 94.77226 122.422857 
z
" clip-path="url(#p1e3e72458d)" style="fill: #0000ff; fill-opacity: 0.4"/>
   </g>
   <g id="patch_42">
    <path d="M 99.915916 132.48 
L 105.059571 132.48 
L 105.059571 132.48 
L 99.915916 132.48 
z
" clip-path="url(#p1e3e72458d)" style="fill: #0000ff; fill-opacity: 0.4"/>
   </g>
   <g id="patch_43">
    <path d="M 105.059571 132.48 
L 110.203226 132.48 
L 110.203226 127.451429 
L 105.059571 127.451429 
z
" clip-path="url(#p1e3e72458d)" style="fill: #0000ff; fill-opacity: 0.4"/>
   </g>
   <g id="patch_44">
    <path d="M 110.203226 132.48 
L 115.346881 132.48 
L 115.346881 132.48 
L 110.203226 132.48 
z
" clip-path="url(#p1e3e72458d)" style="fill: #0000ff; fill-opacity: 0.4"/>
   </g>
   <g id="patch_45">
    <path d="M 115.346881 132.48 
L 120.490536 132.48 
L 120.490536 132.48 
L 115.346881 132.48 
z
" clip-path="url(#p1e3e72458d)" style="fill: #0000ff; fill-opacity: 0.4"/>
   </g>
   <g id="patch_46">
    <path d="M 120.490536 132.48 
L 125.634191 132.48 
L 125.634191 132.48 
L 120.490536 132.48 
z
" clip-path="url(#p1e3e72458d)" style="fill: #0000ff; fill-opacity: 0.4"/>
   </g>
   <g id="patch_47">
    <path d="M 125.634191 132.48 
L 130.777846 132.48 
L 130.777846 132.48 
L 125.634191 132.48 
z
" clip-path="url(#p1e3e72458d)" style="fill: #0000ff; fill-opacity: 0.4"/>
   </g>
   <g id="patch_48">
    <path d="M 130.777846 132.48 
L 135.921502 132.48 
L 135.921502 132.48 
L 130.777846 132.48 
z
" clip-path="url(#p1e3e72458d)" style="fill: #0000ff; fill-opacity: 0.4"/>
   </g>
   <g id="patch_49">
    <path d="M 135.921502 132.48 
L 141.065157 132.48 
L 141.065157 132.48 
L 135.921502 132.48 
z
" clip-path="url(#p1e3e72458d)" style="fill: #0000ff; fill-opacity: 0.4"/>
   </g>
   <g id="patch_50">
    <path d="M 141.065157 132.48 
L 146.208812 132.48 
L 146.208812 132.48 
L 141.065157 132.48 
z
" clip-path="url(#p1e3e72458d)" style="fill: #0000ff; fill-opacity: 0.4"/>
   </g>
   <g id="patch_51">
    <path d="M 146.208812 132.48 
L 151.352467 132.48 
L 151.352467 132.48 
L 146.208812 132.48 
z
" clip-path="url(#p1e3e72458d)" style="fill: #0000ff; fill-opacity: 0.4"/>
   </g>
   <g id="patch_52">
    <path d="M 151.352467 132.48 
L 156.496122 132.48 
L 156.496122 132.48 
L 151.352467 132.48 
z
" clip-path="url(#p1e3e72458d)" style="fill: #0000ff; fill-opacity: 0.4"/>
   </g>
   <g id="patch_53">
    <path d="M 156.496122 132.48 
L 161.639777 132.48 
L 161.639777 132.48 
L 156.496122 132.48 
z
" clip-path="url(#p1e3e72458d)" style="fill: #0000ff; fill-opacity: 0.4"/>
   </g>
   <g id="patch_54">
    <path d="M 161.639777 132.48 
L 166.783433 132.48 
L 166.783433 132.48 
L 161.639777 132.48 
z
" clip-path="url(#p1e3e72458d)" style="fill: #0000ff; fill-opacity: 0.4"/>
   </g>
   <g id="patch_55">
    <path d="M 166.783433 132.48 
L 171.927088 132.48 
L 171.927088 127.451429 
L 166.783433 127.451429 
z
" clip-path="url(#p1e3e72458d)" style="fill: #0000ff; fill-opacity: 0.4"/>
   </g>
   <g id="patch_56">
    <path d="M 171.927088 132.48 
L 177.070743 132.48 
L 177.070743 132.48 
L 171.927088 132.48 
z
" clip-path="url(#p1e3e72458d)" style="fill: #0000ff; fill-opacity: 0.4"/>
   </g>
   <g id="patch_57">
    <path d="M 177.070743 132.48 
L 182.214398 132.48 
L 182.214398 132.48 
L 177.070743 132.48 
z
" clip-path="url(#p1e3e72458d)" style="fill: #0000ff; fill-opacity: 0.4"/>
   </g>
   <g id="patch_58">
    <path d="M 182.214398 132.48 
L 187.358053 132.48 
L 187.358053 132.48 
L 182.214398 132.48 
z
" clip-path="url(#p1e3e72458d)" style="fill: #0000ff; fill-opacity: 0.4"/>
   </g>
   <g id="patch_59">
    <path d="M 187.358053 132.48 
L 192.501708 132.48 
L 192.501708 132.48 
L 187.358053 132.48 
z
" clip-path="url(#p1e3e72458d)" style="fill: #0000ff; fill-opacity: 0.4"/>
   </g>
   <g id="patch_60">
    <path d="M 192.501708 132.48 
L 197.645363 132.48 
L 197.645363 132.48 
L 192.501708 132.48 
z
" clip-path="url(#p1e3e72458d)" style="fill: #0000ff; fill-opacity: 0.4"/>
   </g>
   <g id="patch_61">
    <path d="M 197.645363 132.48 
L 202.789019 132.48 
L 202.789019 132.48 
L 197.645363 132.48 
z
" clip-path="url(#p1e3e72458d)" style="fill: #0000ff; fill-opacity: 0.4"/>
   </g>
   <g id="patch_62">
    <path d="M 202.789019 132.48 
L 207.932674 132.48 
L 207.932674 127.451429 
L 202.789019 127.451429 
z
" clip-path="url(#p1e3e72458d)" style="fill: #0000ff; fill-opacity: 0.4"/>
   </g>
   <g id="matplotlib.axis_1">
    <g id="xtick_1">
     <g id="line2d_1">
      <defs>
       <path id="m6cec42383a" d="M 0 0 
L 0 3.5 
" style="stroke: #000000; stroke-width: 0.8"/>
      </defs>
      <g>
       <use xlink:href="#m6cec42383a" x="48.643258" y="132.48" style="stroke: #000000; stroke-width: 0.8"/>
      </g>
     </g>
     <g id="text_1">
      <!-- 0 -->
      <g transform="translate(45.462008 147.078438) scale(0.1 -0.1)">
       <defs>
        <path id="DejaVuSans-30" d="M 2034 4250 
Q 1547 4250 1301 3770 
Q 1056 3291 1056 2328 
Q 1056 1369 1301 889 
Q 1547 409 2034 409 
Q 2525 409 2770 889 
Q 3016 1369 3016 2328 
Q 3016 3291 2770 3770 
Q 2525 4250 2034 4250 
z
M 2034 4750 
Q 2819 4750 3233 4129 
Q 3647 3509 3647 2328 
Q 3647 1150 3233 529 
Q 2819 -91 2034 -91 
Q 1250 -91 836 529 
Q 422 1150 422 2328 
Q 422 3509 836 4129 
Q 1250 4750 2034 4750 
z
" transform="scale(0.015625)"/>
       </defs>
       <use xlink:href="#DejaVuSans-30"/>
      </g>
     </g>
    </g>
    <g id="xtick_2">
     <g id="line2d_2">
      <g>
       <use xlink:href="#m6cec42383a" x="93.260999" y="132.48" style="stroke: #000000; stroke-width: 0.8"/>
      </g>
     </g>
     <g id="text_2">
      <!-- 10000 -->
      <g transform="translate(77.354749 147.078438) scale(0.1 -0.1)">
       <defs>
        <path id="DejaVuSans-31" d="M 794 531 
L 1825 531 
L 1825 4091 
L 703 3866 
L 703 4441 
L 1819 4666 
L 2450 4666 
L 2450 531 
L 3481 531 
L 3481 0 
L 794 0 
L 794 531 
z
" transform="scale(0.015625)"/>
       </defs>
       <use xlink:href="#DejaVuSans-31"/>
       <use xlink:href="#DejaVuSans-30" x="63.623047"/>
       <use xlink:href="#DejaVuSans-30" x="127.246094"/>
       <use xlink:href="#DejaVuSans-30" x="190.869141"/>
       <use xlink:href="#DejaVuSans-30" x="254.492188"/>
      </g>
     </g>
    </g>
    <g id="xtick_3">
     <g id="line2d_3">
      <g>
       <use xlink:href="#m6cec42383a" x="137.87874" y="132.48" style="stroke: #000000; stroke-width: 0.8"/>
      </g>
     </g>
     <g id="text_3">
      <!-- 20000 -->
      <g transform="translate(121.97249 147.078438) scale(0.1 -0.1)">
       <defs>
        <path id="DejaVuSans-32" d="M 1228 531 
L 3431 531 
L 3431 0 
L 469 0 
L 469 531 
Q 828 903 1448 1529 
Q 2069 2156 2228 2338 
Q 2531 2678 2651 2914 
Q 2772 3150 2772 3378 
Q 2772 3750 2511 3984 
Q 2250 4219 1831 4219 
Q 1534 4219 1204 4116 
Q 875 4013 500 3803 
L 500 4441 
Q 881 4594 1212 4672 
Q 1544 4750 1819 4750 
Q 2544 4750 2975 4387 
Q 3406 4025 3406 3419 
Q 3406 3131 3298 2873 
Q 3191 2616 2906 2266 
Q 2828 2175 2409 1742 
Q 1991 1309 1228 531 
z
" transform="scale(0.015625)"/>
       </defs>
       <use xlink:href="#DejaVuSans-32"/>
       <use xlink:href="#DejaVuSans-30" x="63.623047"/>
       <use xlink:href="#DejaVuSans-30" x="127.246094"/>
       <use xlink:href="#DejaVuSans-30" x="190.869141"/>
       <use xlink:href="#DejaVuSans-30" x="254.492188"/>
      </g>
     </g>
    </g>
    <g id="xtick_4">
     <g id="line2d_4">
      <g>
       <use xlink:href="#m6cec42383a" x="182.496481" y="132.48" style="stroke: #000000; stroke-width: 0.8"/>
      </g>
     </g>
     <g id="text_4">
      <!-- 30000 -->
      <g transform="translate(166.590231 147.078438) scale(0.1 -0.1)">
       <defs>
        <path id="DejaVuSans-33" d="M 2597 2516 
Q 3050 2419 3304 2112 
Q 3559 1806 3559 1356 
Q 3559 666 3084 287 
Q 2609 -91 1734 -91 
Q 1441 -91 1130 -33 
Q 819 25 488 141 
L 488 750 
Q 750 597 1062 519 
Q 1375 441 1716 441 
Q 2309 441 2620 675 
Q 2931 909 2931 1356 
Q 2931 1769 2642 2001 
Q 2353 2234 1838 2234 
L 1294 2234 
L 1294 2753 
L 1863 2753 
Q 2328 2753 2575 2939 
Q 2822 3125 2822 3475 
Q 2822 3834 2567 4026 
Q 2313 4219 1838 4219 
Q 1578 4219 1281 4162 
Q 984 4106 628 3988 
L 628 4550 
Q 988 4650 1302 4700 
Q 1616 4750 1894 4750 
Q 2613 4750 3031 4423 
Q 3450 4097 3450 3541 
Q 3450 3153 3228 2886 
Q 3006 2619 2597 2516 
z
" transform="scale(0.015625)"/>
       </defs>
       <use xlink:href="#DejaVuSans-33"/>
       <use xlink:href="#DejaVuSans-30" x="63.623047"/>
       <use xlink:href="#DejaVuSans-30" x="127.246094"/>
       <use xlink:href="#DejaVuSans-30" x="190.869141"/>
       <use xlink:href="#DejaVuSans-30" x="254.492188"/>
      </g>
     </g>
    </g>
   </g>
   <g id="matplotlib.axis_2">
    <g id="ytick_1">
     <g id="line2d_5">
      <defs>
       <path id="m49a9d1038c" d="M 0 0 
L -3.5 0 
" style="stroke: #000000; stroke-width: 0.8"/>
      </defs>
      <g>
       <use xlink:href="#m49a9d1038c" x="40.603125" y="132.48" style="stroke: #000000; stroke-width: 0.8"/>
      </g>
     </g>
     <g id="text_5">
      <!-- 0 -->
      <g transform="translate(27.240625 136.279219) scale(0.1 -0.1)">
       <use xlink:href="#DejaVuSans-30"/>
      </g>
     </g>
    </g>
    <g id="ytick_2">
     <g id="line2d_6">
      <g>
       <use xlink:href="#m49a9d1038c" x="40.603125" y="107.337143" style="stroke: #000000; stroke-width: 0.8"/>
      </g>
     </g>
     <g id="text_6">
      <!-- 5 -->
      <g transform="translate(27.240625 111.136362) scale(0.1 -0.1)">
       <defs>
        <path id="DejaVuSans-35" d="M 691 4666 
L 3169 4666 
L 3169 4134 
L 1269 4134 
L 1269 2991 
Q 1406 3038 1543 3061 
Q 1681 3084 1819 3084 
Q 2600 3084 3056 2656 
Q 3513 2228 3513 1497 
Q 3513 744 3044 326 
Q 2575 -91 1722 -91 
Q 1428 -91 1123 -41 
Q 819 9 494 109 
L 494 744 
Q 775 591 1075 516 
Q 1375 441 1709 441 
Q 2250 441 2565 725 
Q 2881 1009 2881 1497 
Q 2881 1984 2565 2268 
Q 2250 2553 1709 2553 
Q 1456 2553 1204 2497 
Q 953 2441 691 2322 
L 691 4666 
z
" transform="scale(0.015625)"/>
       </defs>
       <use xlink:href="#DejaVuSans-35"/>
      </g>
     </g>
    </g>
    <g id="ytick_3">
     <g id="line2d_7">
      <g>
       <use xlink:href="#m49a9d1038c" x="40.603125" y="82.194286" style="stroke: #000000; stroke-width: 0.8"/>
      </g>
     </g>
     <g id="text_7">
      <!-- 10 -->
      <g transform="translate(20.878125 85.993504) scale(0.1 -0.1)">
       <use xlink:href="#DejaVuSans-31"/>
       <use xlink:href="#DejaVuSans-30" x="63.623047"/>
      </g>
     </g>
    </g>
    <g id="ytick_4">
     <g id="line2d_8">
      <g>
       <use xlink:href="#m49a9d1038c" x="40.603125" y="57.051429" style="stroke: #000000; stroke-width: 0.8"/>
      </g>
     </g>
     <g id="text_8">
      <!-- 15 -->
      <g transform="translate(20.878125 60.850647) scale(0.1 -0.1)">
       <use xlink:href="#DejaVuSans-31"/>
       <use xlink:href="#DejaVuSans-35" x="63.623047"/>
      </g>
     </g>
    </g>
    <g id="ytick_5">
     <g id="line2d_9">
      <g>
       <use xlink:href="#m49a9d1038c" x="40.603125" y="31.908571" style="stroke: #000000; stroke-width: 0.8"/>
      </g>
     </g>
     <g id="text_9">
      <!-- 20 -->
      <g transform="translate(20.878125 35.70779) scale(0.1 -0.1)">
       <use xlink:href="#DejaVuSans-32"/>
       <use xlink:href="#DejaVuSans-30" x="63.623047"/>
      </g>
     </g>
    </g>
    <g id="text_10">
     <!-- Frequency -->
     <g transform="translate(14.798438 102.869688) rotate(-90) scale(0.1 -0.1)">
      <defs>
       <path id="DejaVuSans-46" d="M 628 4666 
L 3309 4666 
L 3309 4134 
L 1259 4134 
L 1259 2759 
L 3109 2759 
L 3109 2228 
L 1259 2228 
L 1259 0 
L 628 0 
L 628 4666 
z
" transform="scale(0.015625)"/>
       <path id="DejaVuSans-72" d="M 2631 2963 
Q 2534 3019 2420 3045 
Q 2306 3072 2169 3072 
Q 1681 3072 1420 2755 
Q 1159 2438 1159 1844 
L 1159 0 
L 581 0 
L 581 3500 
L 1159 3500 
L 1159 2956 
Q 1341 3275 1631 3429 
Q 1922 3584 2338 3584 
Q 2397 3584 2469 3576 
Q 2541 3569 2628 3553 
L 2631 2963 
z
" transform="scale(0.015625)"/>
       <path id="DejaVuSans-65" d="M 3597 1894 
L 3597 1613 
L 953 1613 
Q 991 1019 1311 708 
Q 1631 397 2203 397 
Q 2534 397 2845 478 
Q 3156 559 3463 722 
L 3463 178 
Q 3153 47 2828 -22 
Q 2503 -91 2169 -91 
Q 1331 -91 842 396 
Q 353 884 353 1716 
Q 353 2575 817 3079 
Q 1281 3584 2069 3584 
Q 2775 3584 3186 3129 
Q 3597 2675 3597 1894 
z
M 3022 2063 
Q 3016 2534 2758 2815 
Q 2500 3097 2075 3097 
Q 1594 3097 1305 2825 
Q 1016 2553 972 2059 
L 3022 2063 
z
" transform="scale(0.015625)"/>
       <path id="DejaVuSans-71" d="M 947 1747 
Q 947 1113 1208 752 
Q 1469 391 1925 391 
Q 2381 391 2643 752 
Q 2906 1113 2906 1747 
Q 2906 2381 2643 2742 
Q 2381 3103 1925 3103 
Q 1469 3103 1208 2742 
Q 947 2381 947 1747 
z
M 2906 525 
Q 2725 213 2448 61 
Q 2172 -91 1784 -91 
Q 1150 -91 751 415 
Q 353 922 353 1747 
Q 353 2572 751 3078 
Q 1150 3584 1784 3584 
Q 2172 3584 2448 3432 
Q 2725 3281 2906 2969 
L 2906 3500 
L 3481 3500 
L 3481 -1331 
L 2906 -1331 
L 2906 525 
z
" transform="scale(0.015625)"/>
       <path id="DejaVuSans-75" d="M 544 1381 
L 544 3500 
L 1119 3500 
L 1119 1403 
Q 1119 906 1312 657 
Q 1506 409 1894 409 
Q 2359 409 2629 706 
Q 2900 1003 2900 1516 
L 2900 3500 
L 3475 3500 
L 3475 0 
L 2900 0 
L 2900 538 
Q 2691 219 2414 64 
Q 2138 -91 1772 -91 
Q 1169 -91 856 284 
Q 544 659 544 1381 
z
M 1991 3584 
L 1991 3584 
z
" transform="scale(0.015625)"/>
       <path id="DejaVuSans-6e" d="M 3513 2113 
L 3513 0 
L 2938 0 
L 2938 2094 
Q 2938 2591 2744 2837 
Q 2550 3084 2163 3084 
Q 1697 3084 1428 2787 
Q 1159 2491 1159 1978 
L 1159 0 
L 581 0 
L 581 3500 
L 1159 3500 
L 1159 2956 
Q 1366 3272 1645 3428 
Q 1925 3584 2291 3584 
Q 2894 3584 3203 3211 
Q 3513 2838 3513 2113 
z
" transform="scale(0.015625)"/>
       <path id="DejaVuSans-63" d="M 3122 3366 
L 3122 2828 
Q 2878 2963 2633 3030 
Q 2388 3097 2138 3097 
Q 1578 3097 1268 2742 
Q 959 2388 959 1747 
Q 959 1106 1268 751 
Q 1578 397 2138 397 
Q 2388 397 2633 464 
Q 2878 531 3122 666 
L 3122 134 
Q 2881 22 2623 -34 
Q 2366 -91 2075 -91 
Q 1284 -91 818 406 
Q 353 903 353 1747 
Q 353 2603 823 3093 
Q 1294 3584 2113 3584 
Q 2378 3584 2631 3529 
Q 2884 3475 3122 3366 
z
" transform="scale(0.015625)"/>
       <path id="DejaVuSans-79" d="M 2059 -325 
Q 1816 -950 1584 -1140 
Q 1353 -1331 966 -1331 
L 506 -1331 
L 506 -850 
L 844 -850 
Q 1081 -850 1212 -737 
Q 1344 -625 1503 -206 
L 1606 56 
L 191 3500 
L 800 3500 
L 1894 763 
L 2988 3500 
L 3597 3500 
L 2059 -325 
z
" transform="scale(0.015625)"/>
      </defs>
      <use xlink:href="#DejaVuSans-46"/>
      <use xlink:href="#DejaVuSans-72" x="50.269531"/>
      <use xlink:href="#DejaVuSans-65" x="89.132812"/>
      <use xlink:href="#DejaVuSans-71" x="150.65625"/>
      <use xlink:href="#DejaVuSans-75" x="214.132812"/>
      <use xlink:href="#DejaVuSans-65" x="277.511719"/>
      <use xlink:href="#DejaVuSans-6e" x="339.035156"/>
      <use xlink:href="#DejaVuSans-63" x="402.414062"/>
      <use xlink:href="#DejaVuSans-79" x="457.394531"/>
     </g>
    </g>
   </g>
   <g id="patch_63">
    <path d="M 40.603125 132.48 
L 40.603125 21.6 
" style="fill: none; stroke: #000000; stroke-width: 0.8; stroke-linejoin: miter; stroke-linecap: square"/>
   </g>
   <g id="patch_64">
    <path d="M 218.14858 132.48 
L 218.14858 21.6 
" style="fill: none; stroke: #000000; stroke-width: 0.8; stroke-linejoin: miter; stroke-linecap: square"/>
   </g>
   <g id="patch_65">
    <path d="M 40.603125 132.48 
L 218.14858 132.48 
" style="fill: none; stroke: #000000; stroke-width: 0.8; stroke-linejoin: miter; stroke-linecap: square"/>
   </g>
   <g id="patch_66">
    <path d="M 40.603125 21.6 
L 218.14858 21.6 
" style="fill: none; stroke: #000000; stroke-width: 0.8; stroke-linejoin: miter; stroke-linecap: square"/>
   </g>
  </g>
  <g id="axes_2">
   <g id="patch_67">
    <path d="M 253.65767 132.48 
L 431.203125 132.48 
L 431.203125 21.6 
L 253.65767 21.6 
z
" style="fill: #ffffff"/>
   </g>
   <g id="matplotlib.axis_3">
    <g id="xtick_5">
     <g id="line2d_10">
      <g>
       <use xlink:href="#m6cec42383a" x="257.446359" y="132.48" style="stroke: #000000; stroke-width: 0.8"/>
      </g>
     </g>
     <g id="text_11">
      <!-- −20000 -->
      <g transform="translate(237.350266 147.078438) scale(0.1 -0.1)">
       <defs>
        <path id="DejaVuSans-2212" d="M 678 2272 
L 4684 2272 
L 4684 1741 
L 678 1741 
L 678 2272 
z
" transform="scale(0.015625)"/>
       </defs>
       <use xlink:href="#DejaVuSans-2212"/>
       <use xlink:href="#DejaVuSans-32" x="83.789062"/>
       <use xlink:href="#DejaVuSans-30" x="147.412109"/>
       <use xlink:href="#DejaVuSans-30" x="211.035156"/>
       <use xlink:href="#DejaVuSans-30" x="274.658203"/>
       <use xlink:href="#DejaVuSans-30" x="338.28125"/>
      </g>
     </g>
    </g>
    <g id="xtick_6">
     <g id="line2d_11">
      <g>
       <use xlink:href="#m6cec42383a" x="302.0641" y="132.48" style="stroke: #000000; stroke-width: 0.8"/>
      </g>
     </g>
     <g id="text_12">
      <!-- 0 -->
      <g transform="translate(298.88285 147.078438) scale(0.1 -0.1)">
       <use xlink:href="#DejaVuSans-30"/>
      </g>
     </g>
    </g>
    <g id="xtick_7">
     <g id="line2d_12">
      <g>
       <use xlink:href="#m6cec42383a" x="346.681841" y="132.48" style="stroke: #000000; stroke-width: 0.8"/>
      </g>
     </g>
     <g id="text_13">
      <!-- 20000 -->
      <g transform="translate(330.775591 147.078438) scale(0.1 -0.1)">
       <use xlink:href="#DejaVuSans-32"/>
       <use xlink:href="#DejaVuSans-30" x="63.623047"/>
       <use xlink:href="#DejaVuSans-30" x="127.246094"/>
       <use xlink:href="#DejaVuSans-30" x="190.869141"/>
       <use xlink:href="#DejaVuSans-30" x="254.492188"/>
      </g>
     </g>
    </g>
    <g id="xtick_8">
     <g id="line2d_13">
      <g>
       <use xlink:href="#m6cec42383a" x="391.299582" y="132.48" style="stroke: #000000; stroke-width: 0.8"/>
      </g>
     </g>
     <g id="text_14">
      <!-- 40000 -->
      <g transform="translate(375.393332 147.078438) scale(0.1 -0.1)">
       <defs>
        <path id="DejaVuSans-34" d="M 2419 4116 
L 825 1625 
L 2419 1625 
L 2419 4116 
z
M 2253 4666 
L 3047 4666 
L 3047 1625 
L 3713 1625 
L 3713 1100 
L 3047 1100 
L 3047 0 
L 2419 0 
L 2419 1100 
L 313 1100 
L 313 1709 
L 2253 4666 
z
" transform="scale(0.015625)"/>
       </defs>
       <use xlink:href="#DejaVuSans-34"/>
       <use xlink:href="#DejaVuSans-30" x="63.623047"/>
       <use xlink:href="#DejaVuSans-30" x="127.246094"/>
       <use xlink:href="#DejaVuSans-30" x="190.869141"/>
       <use xlink:href="#DejaVuSans-30" x="254.492188"/>
      </g>
     </g>
    </g>
   </g>
   <g id="matplotlib.axis_4">
    <g id="ytick_6">
     <g id="line2d_14">
      <g>
       <use xlink:href="#m49a9d1038c" x="253.65767" y="127.440798" style="stroke: #000000; stroke-width: 0.8"/>
      </g>
     </g>
     <g id="text_15">
      <!-- 0 -->
      <g transform="translate(240.29517 131.240017) scale(0.1 -0.1)">
       <use xlink:href="#DejaVuSans-30"/>
      </g>
     </g>
    </g>
    <g id="ytick_7">
     <g id="line2d_15">
      <g>
       <use xlink:href="#m49a9d1038c" x="253.65767" y="100.23226" style="stroke: #000000; stroke-width: 0.8"/>
      </g>
     </g>
     <g id="text_16">
      <!-- 2 -->
      <g transform="translate(240.29517 104.031479) scale(0.1 -0.1)">
       <use xlink:href="#DejaVuSans-32"/>
      </g>
     </g>
    </g>
    <g id="ytick_8">
     <g id="line2d_16">
      <g>
       <use xlink:href="#m49a9d1038c" x="253.65767" y="73.023722" style="stroke: #000000; stroke-width: 0.8"/>
      </g>
     </g>
     <g id="text_17">
      <!-- 4 -->
      <g transform="translate(240.29517 76.82294) scale(0.1 -0.1)">
       <use xlink:href="#DejaVuSans-34"/>
      </g>
     </g>
    </g>
    <g id="ytick_9">
     <g id="line2d_17">
      <g>
       <use xlink:href="#m49a9d1038c" x="253.65767" y="45.815184" style="stroke: #000000; stroke-width: 0.8"/>
      </g>
     </g>
     <g id="text_18">
      <!-- 6 -->
      <g transform="translate(240.29517 49.614402) scale(0.1 -0.1)">
       <defs>
        <path id="DejaVuSans-36" d="M 2113 2584 
Q 1688 2584 1439 2293 
Q 1191 2003 1191 1497 
Q 1191 994 1439 701 
Q 1688 409 2113 409 
Q 2538 409 2786 701 
Q 3034 994 3034 1497 
Q 3034 2003 2786 2293 
Q 2538 2584 2113 2584 
z
M 3366 4563 
L 3366 3988 
Q 3128 4100 2886 4159 
Q 2644 4219 2406 4219 
Q 1781 4219 1451 3797 
Q 1122 3375 1075 2522 
Q 1259 2794 1537 2939 
Q 1816 3084 2150 3084 
Q 2853 3084 3261 2657 
Q 3669 2231 3669 1497 
Q 3669 778 3244 343 
Q 2819 -91 2113 -91 
Q 1303 -91 875 529 
Q 447 1150 447 2328 
Q 447 3434 972 4092 
Q 1497 4750 2381 4750 
Q 2619 4750 2861 4703 
Q 3103 4656 3366 4563 
z
" transform="scale(0.015625)"/>
       </defs>
       <use xlink:href="#DejaVuSans-36"/>
      </g>
     </g>
    </g>
    <g id="text_19">
     <!-- Density -->
     <g transform="translate(234.215483 96.048594) rotate(-90) scale(0.1 -0.1)">
      <defs>
       <path id="DejaVuSans-44" d="M 1259 4147 
L 1259 519 
L 2022 519 
Q 2988 519 3436 956 
Q 3884 1394 3884 2338 
Q 3884 3275 3436 3711 
Q 2988 4147 2022 4147 
L 1259 4147 
z
M 628 4666 
L 1925 4666 
Q 3281 4666 3915 4102 
Q 4550 3538 4550 2338 
Q 4550 1131 3912 565 
Q 3275 0 1925 0 
L 628 0 
L 628 4666 
z
" transform="scale(0.015625)"/>
       <path id="DejaVuSans-73" d="M 2834 3397 
L 2834 2853 
Q 2591 2978 2328 3040 
Q 2066 3103 1784 3103 
Q 1356 3103 1142 2972 
Q 928 2841 928 2578 
Q 928 2378 1081 2264 
Q 1234 2150 1697 2047 
L 1894 2003 
Q 2506 1872 2764 1633 
Q 3022 1394 3022 966 
Q 3022 478 2636 193 
Q 2250 -91 1575 -91 
Q 1294 -91 989 -36 
Q 684 19 347 128 
L 347 722 
Q 666 556 975 473 
Q 1284 391 1588 391 
Q 1994 391 2212 530 
Q 2431 669 2431 922 
Q 2431 1156 2273 1281 
Q 2116 1406 1581 1522 
L 1381 1569 
Q 847 1681 609 1914 
Q 372 2147 372 2553 
Q 372 3047 722 3315 
Q 1072 3584 1716 3584 
Q 2034 3584 2315 3537 
Q 2597 3491 2834 3397 
z
" transform="scale(0.015625)"/>
       <path id="DejaVuSans-69" d="M 603 3500 
L 1178 3500 
L 1178 0 
L 603 0 
L 603 3500 
z
M 603 4863 
L 1178 4863 
L 1178 4134 
L 603 4134 
L 603 4863 
z
" transform="scale(0.015625)"/>
       <path id="DejaVuSans-74" d="M 1172 4494 
L 1172 3500 
L 2356 3500 
L 2356 3053 
L 1172 3053 
L 1172 1153 
Q 1172 725 1289 603 
Q 1406 481 1766 481 
L 2356 481 
L 2356 0 
L 1766 0 
Q 1100 0 847 248 
Q 594 497 594 1153 
L 594 3053 
L 172 3053 
L 172 3500 
L 594 3500 
L 594 4494 
L 1172 4494 
z
" transform="scale(0.015625)"/>
      </defs>
      <use xlink:href="#DejaVuSans-44"/>
      <use xlink:href="#DejaVuSans-65" x="77.001953"/>
      <use xlink:href="#DejaVuSans-6e" x="138.525391"/>
      <use xlink:href="#DejaVuSans-73" x="201.904297"/>
      <use xlink:href="#DejaVuSans-69" x="254.003906"/>
      <use xlink:href="#DejaVuSans-74" x="281.787109"/>
      <use xlink:href="#DejaVuSans-79" x="320.996094"/>
     </g>
    </g>
    <g id="text_20">
     <!-- 1e−5 -->
     <g transform="translate(253.65767 18.6) scale(0.1 -0.1)">
      <use xlink:href="#DejaVuSans-31"/>
      <use xlink:href="#DejaVuSans-65" x="63.623047"/>
      <use xlink:href="#DejaVuSans-2212" x="125.146484"/>
      <use xlink:href="#DejaVuSans-35" x="208.935547"/>
     </g>
    </g>
   </g>
   <g id="line2d_18">
    <path d="M 261.727918 127.425884 
L 267.867446 127.275225 
L 270.775644 126.988409 
L 272.876009 126.554933 
L 274.491674 126.000236 
L 275.945773 125.259707 
L 277.238305 124.34387 
L 278.36927 123.290414 
L 279.500236 121.950596 
L 280.631202 120.272138 
L 281.762168 118.201382 
L 282.893133 115.685988 
L 284.185665 112.206039 
L 285.478198 108.026604 
L 286.77073 103.114192 
L 288.224829 96.711174 
L 289.840494 88.581571 
L 291.940859 76.735208 
L 297.595687 43.942714 
L 299.049786 37.216785 
L 300.180751 32.964717 
L 301.150151 30.122651 
L 301.957983 28.374563 
L 302.604249 27.403755 
L 303.250515 26.823924 
L 303.735215 26.648778 
L 304.219915 26.696716 
L 304.704614 26.966487 
L 305.35088 27.666255 
L 305.997146 28.744658 
L 306.804979 30.601734 
L 307.774378 33.524916 
L 308.905344 37.786679 
L 310.197876 43.587016 
L 311.975108 52.717663 
L 318.599335 87.995935 
L 320.215001 94.954463 
L 321.669099 100.344415 
L 323.123198 104.896003 
L 324.41573 108.268445 
L 325.708262 111.058914 
L 327.000795 113.331573 
L 328.293327 115.157513 
L 329.585859 116.608983 
L 330.878391 117.754886 
L 332.33249 118.756044 
L 333.948155 119.598443 
L 335.886953 120.342266 
L 338.148885 120.957329 
L 340.733949 121.416921 
L 343.319014 121.642261 
L 345.742511 121.629821 
L 348.166009 121.399697 
L 351.074207 120.892829 
L 357.213735 119.747962 
L 359.475666 119.596803 
L 361.576031 119.669004 
L 363.837962 119.966142 
L 366.74616 120.586635 
L 373.208821 122.042095 
L 376.601718 122.515122 
L 385.972576 123.639117 
L 389.850173 124.469422 
L 398.251632 126.356432 
L 401.806096 126.868432 
L 405.683692 127.194964 
L 410.692255 127.375237 
L 419.901547 127.437871 
L 423.132877 127.44 
L 423.132877 127.44 
" clip-path="url(#p8ff6017d71)" style="fill: none; stroke: #ff0000; stroke-opacity: 0.4; stroke-width: 1.5; stroke-linecap: square"/>
   </g>
   <g id="line2d_19">
    <path d="M 265.976568 127.337753 
L 270.301563 127.100446 
L 273.236381 126.729343 
L 275.553343 126.219274 
L 277.561376 125.545935 
L 279.260482 124.75098 
L 280.805123 123.803515 
L 282.349764 122.599397 
L 283.894405 121.096825 
L 285.439047 119.255967 
L 286.983688 117.041979 
L 288.528329 114.428384 
L 290.227434 111.074836 
L 291.92654 107.222142 
L 293.780109 102.483726 
L 296.097071 95.892682 
L 299.340817 85.870244 
L 303.665813 72.58336 
L 305.673846 67.095952 
L 307.372951 63.053066 
L 308.763128 60.252125 
L 309.998841 58.197056 
L 311.08009 56.761441 
L 312.161339 55.681391 
L 313.088124 55.047056 
L 314.014908 54.68583 
L 314.787229 54.594199 
L 315.55955 54.692016 
L 316.486334 55.056288 
L 317.413119 55.684022 
L 318.339904 56.56671 
L 319.421153 57.904325 
L 320.656866 59.813518 
L 322.047043 62.403163 
L 323.591684 65.760235 
L 325.445253 70.333088 
L 327.916679 77.079648 
L 335.948813 99.532969 
L 338.111311 104.646412 
L 339.96488 108.472081 
L 341.663986 111.481985 
L 343.208627 113.792538 
L 344.753268 115.701397 
L 346.143445 117.089368 
L 347.533622 118.184797 
L 348.923799 119.012988 
L 350.313976 119.603566 
L 351.858618 120.020612 
L 353.557723 120.242199 
L 355.565756 120.264666 
L 358.191646 120.048724 
L 368.695206 118.931735 
L 372.402345 118.875829 
L 375.95502 119.043164 
L 379.198767 119.418778 
L 382.288049 120.005464 
L 385.377331 120.818633 
L 389.238934 122.085845 
L 398.043389 125.081256 
L 401.4416 125.941947 
L 404.685346 126.539031 
L 408.238021 126.966181 
L 412.563016 127.248432 
L 418.587117 127.397108 
L 420.286222 127.413368 
L 420.286222 127.413368 
" clip-path="url(#p8ff6017d71)" style="fill: none; stroke: #0000ff; stroke-opacity: 0.4; stroke-width: 1.5; stroke-linecap: square"/>
   </g>
   <g id="line2d_20">
    <path d="M 322.03054 132.48 
L 322.03054 21.6 
" clip-path="url(#p8ff6017d71)" style="fill: none; stroke: #0000ff; stroke-opacity: 0.4; stroke-width: 1.5; stroke-linecap: square"/>
   </g>
   <g id="line2d_21">
    <path d="M 311.456135 132.48 
L 311.456135 21.6 
" clip-path="url(#p8ff6017d71)" style="fill: none; stroke: #ff0000; stroke-opacity: 0.4; stroke-width: 1.5; stroke-linecap: square"/>
   </g>
   <g id="patch_68">
    <path d="M 253.65767 132.48 
L 253.65767 21.6 
" style="fill: none; stroke: #000000; stroke-width: 0.8; stroke-linejoin: miter; stroke-linecap: square"/>
   </g>
   <g id="patch_69">
    <path d="M 431.203125 132.48 
L 431.203125 21.6 
" style="fill: none; stroke: #000000; stroke-width: 0.8; stroke-linejoin: miter; stroke-linecap: square"/>
   </g>
   <g id="patch_70">
    <path d="M 253.65767 132.48 
L 431.203125 132.48 
" style="fill: none; stroke: #000000; stroke-width: 0.8; stroke-linejoin: miter; stroke-linecap: square"/>
   </g>
   <g id="patch_71">
    <path d="M 253.65767 21.6 
L 431.203125 21.6 
" style="fill: none; stroke: #000000; stroke-width: 0.8; stroke-linejoin: miter; stroke-linecap: square"/>
   </g>
  </g>
  <g id="text_21">
   <!-- [q-per-s] -->
   <g transform="translate(204.072188 16.318125) scale(0.12 -0.12)">
    <defs>
     <path id="DejaVuSans-5b" d="M 550 4863 
L 1875 4863 
L 1875 4416 
L 1125 4416 
L 1125 -397 
L 1875 -397 
L 1875 -844 
L 550 -844 
L 550 4863 
z
" transform="scale(0.015625)"/>
     <path id="DejaVuSans-2d" d="M 313 2009 
L 1997 2009 
L 1997 1497 
L 313 1497 
L 313 2009 
z
" transform="scale(0.015625)"/>
     <path id="DejaVuSans-70" d="M 1159 525 
L 1159 -1331 
L 581 -1331 
L 581 3500 
L 1159 3500 
L 1159 2969 
Q 1341 3281 1617 3432 
Q 1894 3584 2278 3584 
Q 2916 3584 3314 3078 
Q 3713 2572 3713 1747 
Q 3713 922 3314 415 
Q 2916 -91 2278 -91 
Q 1894 -91 1617 61 
Q 1341 213 1159 525 
z
M 3116 1747 
Q 3116 2381 2855 2742 
Q 2594 3103 2138 3103 
Q 1681 3103 1420 2742 
Q 1159 2381 1159 1747 
Q 1159 1113 1420 752 
Q 1681 391 2138 391 
Q 2594 391 2855 752 
Q 3116 1113 3116 1747 
z
" transform="scale(0.015625)"/>
     <path id="DejaVuSans-5d" d="M 1947 4863 
L 1947 -844 
L 622 -844 
L 622 -397 
L 1369 -397 
L 1369 4416 
L 622 4416 
L 622 4863 
L 1947 4863 
z
" transform="scale(0.015625)"/>
    </defs>
    <use xlink:href="#DejaVuSans-5b"/>
    <use xlink:href="#DejaVuSans-71" x="39.013672"/>
    <use xlink:href="#DejaVuSans-2d" x="102.490234"/>
    <use xlink:href="#DejaVuSans-70" x="138.574219"/>
    <use xlink:href="#DejaVuSans-65" x="202.050781"/>
    <use xlink:href="#DejaVuSans-72" x="263.574219"/>
    <use xlink:href="#DejaVuSans-2d" x="298.3125"/>
    <use xlink:href="#DejaVuSans-73" x="334.396484"/>
    <use xlink:href="#DejaVuSans-5d" x="386.496094"/>
   </g>
  </g>
  <g id="text_22">
   <!-- Histogram and density distribution of $q/hr$ per class. -->
   <g transform="translate(99.053125 162.72) scale(0.1 -0.1)">
    <defs>
     <path id="DejaVuSans-48" d="M 628 4666 
L 1259 4666 
L 1259 2753 
L 3553 2753 
L 3553 4666 
L 4184 4666 
L 4184 0 
L 3553 0 
L 3553 2222 
L 1259 2222 
L 1259 0 
L 628 0 
L 628 4666 
z
" transform="scale(0.015625)"/>
     <path id="DejaVuSans-6f" d="M 1959 3097 
Q 1497 3097 1228 2736 
Q 959 2375 959 1747 
Q 959 1119 1226 758 
Q 1494 397 1959 397 
Q 2419 397 2687 759 
Q 2956 1122 2956 1747 
Q 2956 2369 2687 2733 
Q 2419 3097 1959 3097 
z
M 1959 3584 
Q 2709 3584 3137 3096 
Q 3566 2609 3566 1747 
Q 3566 888 3137 398 
Q 2709 -91 1959 -91 
Q 1206 -91 779 398 
Q 353 888 353 1747 
Q 353 2609 779 3096 
Q 1206 3584 1959 3584 
z
" transform="scale(0.015625)"/>
     <path id="DejaVuSans-67" d="M 2906 1791 
Q 2906 2416 2648 2759 
Q 2391 3103 1925 3103 
Q 1463 3103 1205 2759 
Q 947 2416 947 1791 
Q 947 1169 1205 825 
Q 1463 481 1925 481 
Q 2391 481 2648 825 
Q 2906 1169 2906 1791 
z
M 3481 434 
Q 3481 -459 3084 -895 
Q 2688 -1331 1869 -1331 
Q 1566 -1331 1297 -1286 
Q 1028 -1241 775 -1147 
L 775 -588 
Q 1028 -725 1275 -790 
Q 1522 -856 1778 -856 
Q 2344 -856 2625 -561 
Q 2906 -266 2906 331 
L 2906 616 
Q 2728 306 2450 153 
Q 2172 0 1784 0 
Q 1141 0 747 490 
Q 353 981 353 1791 
Q 353 2603 747 3093 
Q 1141 3584 1784 3584 
Q 2172 3584 2450 3431 
Q 2728 3278 2906 2969 
L 2906 3500 
L 3481 3500 
L 3481 434 
z
" transform="scale(0.015625)"/>
     <path id="DejaVuSans-61" d="M 2194 1759 
Q 1497 1759 1228 1600 
Q 959 1441 959 1056 
Q 959 750 1161 570 
Q 1363 391 1709 391 
Q 2188 391 2477 730 
Q 2766 1069 2766 1631 
L 2766 1759 
L 2194 1759 
z
M 3341 1997 
L 3341 0 
L 2766 0 
L 2766 531 
Q 2569 213 2275 61 
Q 1981 -91 1556 -91 
Q 1019 -91 701 211 
Q 384 513 384 1019 
Q 384 1609 779 1909 
Q 1175 2209 1959 2209 
L 2766 2209 
L 2766 2266 
Q 2766 2663 2505 2880 
Q 2244 3097 1772 3097 
Q 1472 3097 1187 3025 
Q 903 2953 641 2809 
L 641 3341 
Q 956 3463 1253 3523 
Q 1550 3584 1831 3584 
Q 2591 3584 2966 3190 
Q 3341 2797 3341 1997 
z
" transform="scale(0.015625)"/>
     <path id="DejaVuSans-6d" d="M 3328 2828 
Q 3544 3216 3844 3400 
Q 4144 3584 4550 3584 
Q 5097 3584 5394 3201 
Q 5691 2819 5691 2113 
L 5691 0 
L 5113 0 
L 5113 2094 
Q 5113 2597 4934 2840 
Q 4756 3084 4391 3084 
Q 3944 3084 3684 2787 
Q 3425 2491 3425 1978 
L 3425 0 
L 2847 0 
L 2847 2094 
Q 2847 2600 2669 2842 
Q 2491 3084 2119 3084 
Q 1678 3084 1418 2786 
Q 1159 2488 1159 1978 
L 1159 0 
L 581 0 
L 581 3500 
L 1159 3500 
L 1159 2956 
Q 1356 3278 1631 3431 
Q 1906 3584 2284 3584 
Q 2666 3584 2933 3390 
Q 3200 3197 3328 2828 
z
" transform="scale(0.015625)"/>
     <path id="DejaVuSans-20" transform="scale(0.015625)"/>
     <path id="DejaVuSans-64" d="M 2906 2969 
L 2906 4863 
L 3481 4863 
L 3481 0 
L 2906 0 
L 2906 525 
Q 2725 213 2448 61 
Q 2172 -91 1784 -91 
Q 1150 -91 751 415 
Q 353 922 353 1747 
Q 353 2572 751 3078 
Q 1150 3584 1784 3584 
Q 2172 3584 2448 3432 
Q 2725 3281 2906 2969 
z
M 947 1747 
Q 947 1113 1208 752 
Q 1469 391 1925 391 
Q 2381 391 2643 752 
Q 2906 1113 2906 1747 
Q 2906 2381 2643 2742 
Q 2381 3103 1925 3103 
Q 1469 3103 1208 2742 
Q 947 2381 947 1747 
z
" transform="scale(0.015625)"/>
     <path id="DejaVuSans-62" d="M 3116 1747 
Q 3116 2381 2855 2742 
Q 2594 3103 2138 3103 
Q 1681 3103 1420 2742 
Q 1159 2381 1159 1747 
Q 1159 1113 1420 752 
Q 1681 391 2138 391 
Q 2594 391 2855 752 
Q 3116 1113 3116 1747 
z
M 1159 2969 
Q 1341 3281 1617 3432 
Q 1894 3584 2278 3584 
Q 2916 3584 3314 3078 
Q 3713 2572 3713 1747 
Q 3713 922 3314 415 
Q 2916 -91 2278 -91 
Q 1894 -91 1617 61 
Q 1341 213 1159 525 
L 1159 0 
L 581 0 
L 581 4863 
L 1159 4863 
L 1159 2969 
z
" transform="scale(0.015625)"/>
     <path id="DejaVuSans-66" d="M 2375 4863 
L 2375 4384 
L 1825 4384 
Q 1516 4384 1395 4259 
Q 1275 4134 1275 3809 
L 1275 3500 
L 2222 3500 
L 2222 3053 
L 1275 3053 
L 1275 0 
L 697 0 
L 697 3053 
L 147 3053 
L 147 3500 
L 697 3500 
L 697 3744 
Q 697 4328 969 4595 
Q 1241 4863 1831 4863 
L 2375 4863 
z
" transform="scale(0.015625)"/>
     <path id="DejaVuSans-Oblique-71" d="M 2669 525 
Q 2438 222 2123 65 
Q 1809 -91 1428 -91 
Q 897 -91 595 267 
Q 294 625 294 1253 
Q 294 1759 480 2231 
Q 666 2703 1013 3078 
Q 1238 3322 1530 3453 
Q 1822 3584 2144 3584 
Q 2531 3584 2781 3431 
Q 3031 3278 3144 2969 
L 3244 3494 
L 3822 3494 
L 2888 -1319 
L 2309 -1319 
L 2669 525 
z
M 891 1338 
Q 891 875 1084 633 
Q 1278 391 1644 391 
Q 2188 391 2572 911 
Q 2956 1431 2956 2175 
Q 2956 2625 2757 2864 
Q 2559 3103 2188 3103 
Q 1916 3103 1684 2976 
Q 1453 2850 1281 2606 
Q 1100 2350 995 2006 
Q 891 1663 891 1338 
z
" transform="scale(0.015625)"/>
     <path id="DejaVuSans-2f" d="M 1625 4666 
L 2156 4666 
L 531 -594 
L 0 -594 
L 1625 4666 
z
" transform="scale(0.015625)"/>
     <path id="DejaVuSans-Oblique-68" d="M 3566 2113 
L 3156 0 
L 2578 0 
L 2988 2091 
Q 3016 2238 3031 2350 
Q 3047 2463 3047 2528 
Q 3047 2791 2881 2937 
Q 2716 3084 2419 3084 
Q 1956 3084 1617 2771 
Q 1278 2459 1178 1941 
L 800 0 
L 225 0 
L 1172 4863 
L 1747 4863 
L 1375 2950 
Q 1594 3244 1934 3414 
Q 2275 3584 2650 3584 
Q 3113 3584 3367 3334 
Q 3622 3084 3622 2631 
Q 3622 2519 3608 2391 
Q 3594 2263 3566 2113 
z
" transform="scale(0.015625)"/>
     <path id="DejaVuSans-Oblique-72" d="M 2853 2969 
Q 2766 3016 2653 3041 
Q 2541 3066 2413 3066 
Q 1953 3066 1609 2717 
Q 1266 2369 1153 1784 
L 800 0 
L 225 0 
L 909 3500 
L 1484 3500 
L 1375 2956 
Q 1603 3259 1920 3421 
Q 2238 3584 2597 3584 
Q 2691 3584 2781 3573 
Q 2872 3563 2963 3538 
L 2853 2969 
z
" transform="scale(0.015625)"/>
     <path id="DejaVuSans-6c" d="M 603 4863 
L 1178 4863 
L 1178 0 
L 603 0 
L 603 4863 
z
" transform="scale(0.015625)"/>
     <path id="DejaVuSans-2e" d="M 684 794 
L 1344 794 
L 1344 0 
L 684 0 
L 684 794 
z
" transform="scale(0.015625)"/>
    </defs>
    <use xlink:href="#DejaVuSans-48" transform="translate(0 0.015625)"/>
    <use xlink:href="#DejaVuSans-69" transform="translate(75.195312 0.015625)"/>
    <use xlink:href="#DejaVuSans-73" transform="translate(102.978516 0.015625)"/>
    <use xlink:href="#DejaVuSans-74" transform="translate(155.078125 0.015625)"/>
    <use xlink:href="#DejaVuSans-6f" transform="translate(194.287109 0.015625)"/>
    <use xlink:href="#DejaVuSans-67" transform="translate(255.46875 0.015625)"/>
    <use xlink:href="#DejaVuSans-72" transform="translate(318.945312 0.015625)"/>
    <use xlink:href="#DejaVuSans-61" transform="translate(360.058594 0.015625)"/>
    <use xlink:href="#DejaVuSans-6d" transform="translate(421.337891 0.015625)"/>
    <use xlink:href="#DejaVuSans-20" transform="translate(518.75 0.015625)"/>
    <use xlink:href="#DejaVuSans-61" transform="translate(550.537109 0.015625)"/>
    <use xlink:href="#DejaVuSans-6e" transform="translate(611.816406 0.015625)"/>
    <use xlink:href="#DejaVuSans-64" transform="translate(675.195312 0.015625)"/>
    <use xlink:href="#DejaVuSans-20" transform="translate(738.671875 0.015625)"/>
    <use xlink:href="#DejaVuSans-64" transform="translate(770.458984 0.015625)"/>
    <use xlink:href="#DejaVuSans-65" transform="translate(833.935547 0.015625)"/>
    <use xlink:href="#DejaVuSans-6e" transform="translate(895.458984 0.015625)"/>
    <use xlink:href="#DejaVuSans-73" transform="translate(958.837891 0.015625)"/>
    <use xlink:href="#DejaVuSans-69" transform="translate(1010.9375 0.015625)"/>
    <use xlink:href="#DejaVuSans-74" transform="translate(1038.720703 0.015625)"/>
    <use xlink:href="#DejaVuSans-79" transform="translate(1077.929688 0.015625)"/>
    <use xlink:href="#DejaVuSans-20" transform="translate(1137.109375 0.015625)"/>
    <use xlink:href="#DejaVuSans-64" transform="translate(1168.896484 0.015625)"/>
    <use xlink:href="#DejaVuSans-69" transform="translate(1232.373047 0.015625)"/>
    <use xlink:href="#DejaVuSans-73" transform="translate(1260.15625 0.015625)"/>
    <use xlink:href="#DejaVuSans-74" transform="translate(1312.255859 0.015625)"/>
    <use xlink:href="#DejaVuSans-72" transform="translate(1351.464844 0.015625)"/>
    <use xlink:href="#DejaVuSans-69" transform="translate(1392.578125 0.015625)"/>
    <use xlink:href="#DejaVuSans-62" transform="translate(1420.361328 0.015625)"/>
    <use xlink:href="#DejaVuSans-75" transform="translate(1483.837891 0.015625)"/>
    <use xlink:href="#DejaVuSans-74" transform="translate(1547.216797 0.015625)"/>
    <use xlink:href="#DejaVuSans-69" transform="translate(1586.425781 0.015625)"/>
    <use xlink:href="#DejaVuSans-6f" transform="translate(1614.208984 0.015625)"/>
    <use xlink:href="#DejaVuSans-6e" transform="translate(1675.390625 0.015625)"/>
    <use xlink:href="#DejaVuSans-20" transform="translate(1738.769531 0.015625)"/>
    <use xlink:href="#DejaVuSans-6f" transform="translate(1770.556641 0.015625)"/>
    <use xlink:href="#DejaVuSans-66" transform="translate(1831.738281 0.015625)"/>
    <use xlink:href="#DejaVuSans-20" transform="translate(1866.943359 0.015625)"/>
    <use xlink:href="#DejaVuSans-Oblique-71" transform="translate(1898.730469 0.015625)"/>
    <use xlink:href="#DejaVuSans-2f" transform="translate(1962.207031 0.015625)"/>
    <use xlink:href="#DejaVuSans-Oblique-68" transform="translate(1995.898438 0.015625)"/>
    <use xlink:href="#DejaVuSans-Oblique-72" transform="translate(2059.277344 0.015625)"/>
    <use xlink:href="#DejaVuSans-20" transform="translate(2100.390625 0.015625)"/>
    <use xlink:href="#DejaVuSans-70" transform="translate(2132.177734 0.015625)"/>
    <use xlink:href="#DejaVuSans-65" transform="translate(2195.654297 0.015625)"/>
    <use xlink:href="#DejaVuSans-72" transform="translate(2257.177734 0.015625)"/>
    <use xlink:href="#DejaVuSans-20" transform="translate(2298.291016 0.015625)"/>
    <use xlink:href="#DejaVuSans-63" transform="translate(2330.078125 0.015625)"/>
    <use xlink:href="#DejaVuSans-6c" transform="translate(2385.058594 0.015625)"/>
    <use xlink:href="#DejaVuSans-61" transform="translate(2412.841797 0.015625)"/>
    <use xlink:href="#DejaVuSans-73" transform="translate(2474.121094 0.015625)"/>
    <use xlink:href="#DejaVuSans-73" transform="translate(2526.220703 0.015625)"/>
    <use xlink:href="#DejaVuSans-2e" transform="translate(2578.320312 0.015625)"/>
   </g>
  </g>
  <g id="legend_1">
   <g id="patch_72">
    <path d="M 384.109375 37.35625 
L 476.803125 37.35625 
Q 478.803125 37.35625 478.803125 35.35625 
L 478.803125 7 
Q 478.803125 5 476.803125 5 
L 384.109375 5 
Q 382.109375 5 382.109375 7 
L 382.109375 35.35625 
Q 382.109375 37.35625 384.109375 37.35625 
z
" style="fill: #ffffff; opacity: 0.8; stroke: #cccccc; stroke-linejoin: miter"/>
   </g>
   <g id="line2d_22">
    <path d="M 386.109375 13.098438 
L 396.109375 13.098438 
L 406.109375 13.098438 
" style="fill: none; stroke: #ff0000; stroke-opacity: 0.4; stroke-width: 1.5; stroke-linecap: square"/>
   </g>
   <g id="text_23">
    <!-- infected -->
    <g transform="translate(414.109375 16.598438) scale(0.1 -0.1)">
     <use xlink:href="#DejaVuSans-69"/>
     <use xlink:href="#DejaVuSans-6e" x="27.783203"/>
     <use xlink:href="#DejaVuSans-66" x="91.162109"/>
     <use xlink:href="#DejaVuSans-65" x="126.367188"/>
     <use xlink:href="#DejaVuSans-63" x="187.890625"/>
     <use xlink:href="#DejaVuSans-74" x="242.871094"/>
     <use xlink:href="#DejaVuSans-65" x="282.080078"/>
     <use xlink:href="#DejaVuSans-64" x="343.603516"/>
    </g>
   </g>
   <g id="line2d_23">
    <path d="M 386.109375 27.776563 
L 396.109375 27.776563 
L 406.109375 27.776563 
" style="fill: none; stroke: #0000ff; stroke-opacity: 0.4; stroke-width: 1.5; stroke-linecap: square"/>
   </g>
   <g id="text_24">
    <!-- not-infected -->
    <g transform="translate(414.109375 31.276563) scale(0.1 -0.1)">
     <use xlink:href="#DejaVuSans-6e"/>
     <use xlink:href="#DejaVuSans-6f" x="63.378906"/>
     <use xlink:href="#DejaVuSans-74" x="124.560547"/>
     <use xlink:href="#DejaVuSans-2d" x="163.769531"/>
     <use xlink:href="#DejaVuSans-69" x="199.853516"/>
     <use xlink:href="#DejaVuSans-6e" x="227.636719"/>
     <use xlink:href="#DejaVuSans-66" x="291.015625"/>
     <use xlink:href="#DejaVuSans-65" x="326.220703"/>
     <use xlink:href="#DejaVuSans-63" x="387.744141"/>
     <use xlink:href="#DejaVuSans-74" x="442.724609"/>
     <use xlink:href="#DejaVuSans-65" x="481.933594"/>
     <use xlink:href="#DejaVuSans-64" x="543.457031"/>
    </g>
   </g>
  </g>
 </g>
 <defs>
  <clipPath id="p1e3e72458d">
   <rect x="40.603125" y="21.6" width="177.545455" height="110.88"/>
  </clipPath>
  <clipPath id="p8ff6017d71">
   <rect x="253.65767" y="21.6" width="177.545455" height="110.88"/>
  </clipPath>
 </defs>
</svg>
